<svg width="141" height="141" viewBox="0 0 141 141" fill="none" xmlns="http://www.w3.org/2000/svg">
<g filter="url(#filter0_i_234_2597)">
<path fill-rule="evenodd" clip-rule="evenodd" d="M25 0C11.1929 0 0 11.1929 0 25V116C0 129.807 11.1929 141 25 141H116C129.807 141 141 129.807 141 116V25C141 11.1929 129.807 0 116 0H25ZM40 26C31.7157 26 25 32.7157 25 41V102C25 110.284 31.7157 117 40 117H102C110.284 117 117 110.284 117 102V41C117 32.7157 110.284 26 102 26H40Z" fill="#D9D9D9"/>
</g>
<defs>
<filter id="filter0_i_234_2597" x="0" y="0" width="141" height="145" filterUnits="userSpaceOnUse" color-interpolation-filters="sRGB">
<feFlood flood-opacity="0" result="BackgroundImageFix"/>
<feBlend mode="normal" in="SourceGraphic" in2="BackgroundImageFix" result="shape"/>
<feColorMatrix in="SourceAlpha" type="matrix" values="0 0 0 0 0 0 0 0 0 0 0 0 0 0 0 0 0 0 127 0" result="hardAlpha"/>
<feOffset dy="4"/>
<feGaussianBlur stdDeviation="2"/>
<feComposite in2="hardAlpha" operator="arithmetic" k2="-1" k3="1"/>
<feColorMatrix type="matrix" values="0 0 0 0 0 0 0 0 0 0 0 0 0 0 0 0 0 0 0.25 0"/>
<feBlend mode="normal" in2="shape" result="effect1_innerShadow_234_2597"/>
</filter>
</defs>
</svg>
