<svg width="53" height="54" viewBox="0 0 53 54" fill="none" xmlns="http://www.w3.org/2000/svg">
<g id="Group 67">
<path id="KU" d="M22.5655 22.4037C22.3582 23.709 22.5655 27.8647 22.5655 27.8647C22.5655 27.8647 21.7346 28.0185 21.1993 27.9947C20.1953 27.9501 18.7401 27.2146 18.7401 27.2146L15.4612 25.2308C15.4612 25.2308 15.4166 26.0456 15.4612 26.5644C15.561 27.7246 16.281 29.425 16.281 29.425C16.281 29.425 15.2841 29.0999 14.6415 28.9049C13.1594 28.4552 10.8161 27.8647 10.8161 27.8647L12.4556 29.9451L10.3696 30.6361C10.3696 30.6361 11.5082 30.6483 13.0021 31.7654L16.8274 34.626C20.6528 37.4865 26.2738 38.0716 26.2738 38.0716L25.2979 39.3069C25.2979 39.3069 28.5575 38.0716 28.6768 38.7868C28.796 39.5019 27.6238 40.2579 27.857 40.518C28.0903 40.778 29.3492 39.7362 30.1623 39.4469C31.7671 38.8759 32.837 39.4469 33.4951 40.087C33.6512 40.2388 34.0449 40.0849 34.0449 40.0849C34.0449 40.0849 34.1532 39.4066 33.4951 38.8759C32.837 38.3453 30.6094 38.2667 30.7627 38.0066C30.7627 38.0066 33.0661 37.1309 34.3149 36.1863C35.5636 35.2417 36.9895 33.9371 37.3205 32.2855C37.6515 30.634 37.0037 28.1222 37.0473 27.6046C37.0908 27.087 37.3205 26.3044 37.3205 26.3044L40.3262 22.6637L40.0529 22.4037L36.774 19.8032L36.5008 19.2831C36.5008 19.2831 36.1785 18.4454 35.8543 17.9828C35.5306 17.5209 34.8613 16.9426 34.8613 16.9426L35.4078 15.9024L31.8823 16.4225V15.2114C31.8823 15.2114 30.6488 16.7374 29.5231 17.1135C28.3975 17.4896 28.0893 17.5811 27.2106 17.9828C26.2555 18.4194 25.6705 18.6149 24.8514 19.2831C23.6894 20.2309 22.7728 21.0983 22.5655 22.4037Z" fill="#EEEEEE"/>
<circle id="Ellipse 10" cx="26.5" cy="26.7329" r="25.5" stroke="#EEEEEE" stroke-width="2"/>
</g>
</svg>
