<svg width="53" height="54" viewBox="0 0 53 54" fill="none" xmlns="http://www.w3.org/2000/svg">
<g id="Group 63">
<g id="COLLECTOR">
<path d="M22.1626 14.3056L8.06543 8.93879L16.4356 16.0946L8.06543 20.7458L16.8762 18.5991L11.8156 25.0393L18.1978 21.8192L16.8988 24.8117L18.1978 25.3971C18.1978 25.3971 18.8023 28.1999 19.9599 29.3328C20.9405 30.2923 23.8118 30.5723 25.348 30.7639C25.4723 30.7794 25.348 31.1217 25.348 31.1217C25.348 31.1217 25.2803 31.1297 24.7381 31.235C24.2591 31.3281 24.503 34.0362 24.3016 36.255C24.2873 36.4118 23.8309 35.798 23.8118 35.9488C23.7952 36.0797 24.1959 36.9743 24.1959 37.1009C24.1959 37.4849 24.4548 38.9413 24.5799 40.0686C24.7051 41.1958 24.6315 41.8508 24.8029 42.9719C24.9309 43.8096 25.1786 45.0755 25.1786 45.0755L24.7381 45.7911C24.7381 45.7911 24.5912 46.3286 25.348 46.3178C26.0595 46.3076 26.7369 46.3476 26.7738 45.7911C26.7926 45.5081 26.5317 45.3571 26.5002 45.0755C26.4227 44.3822 26.4084 43.6295 26.5002 42.9719C26.6132 42.1628 26.4758 41.5194 27.2683 41.5059C28.1461 41.491 28.1155 42.2039 28.1946 42.9719C28.2541 43.5504 28.1946 44.6898 28.1946 45.0755C28.1946 45.4121 28.0364 45.5497 27.9681 45.7911C27.8008 46.3819 28.4205 46.3178 29.1886 46.3178C29.9755 46.2823 29.9567 45.7911 29.9567 45.7911L29.5162 45.0755C29.5162 45.0755 29.7855 43.8207 29.9567 42.9719C30.1732 41.8995 30.2843 41.4231 30.3408 40.1732C30.3621 39.7025 30.7248 37.1009 30.7248 37.1009C30.7248 37.1009 31.1597 35.7572 31.1089 35.5647C31.0893 35.4904 30.5734 36.3945 30.5734 36.3945C30.5734 36.3945 30.3408 35.4545 30.3408 34.7967C30.3408 32.4924 30.1866 31.4316 29.9567 31.3403C29.7269 31.2491 28.9482 31.1217 28.9482 31.1217C28.9482 31.1217 28.8554 30.7556 29.1095 30.7639C29.1095 30.7639 33.4133 30.5723 34.5654 29.3328C35.7176 28.0933 35.7176 25.5798 35.7176 25.5798L37.1409 24.8117L36.4857 21.8192L38.022 21.5139L36.2598 18.5991L37.5814 16.4524L34.9382 17.5257L26.1274 10.4448V13.9478L18.3107 8.2981L22.1626 14.3056Z" fill="#EEEEEE"/>
<path d="M33.7973 41.3253C33.7973 41.3253 34.0345 41.3339 34.0345 40.0686C34.0345 40.0686 33.8372 34.0651 33.4133 32.8765C33.1917 32.2553 32.0774 31.6862 31.5932 31.5543C31.1089 31.4225 31.493 32.4924 31.493 33.2605C31.493 34.4126 31.4337 34.8563 31.493 34.7967C31.5725 34.7167 31.7854 34.1522 31.877 34.4126C32.5527 36.3328 32.6451 39.9796 32.6451 39.9796C32.6451 39.9796 31.877 40.0686 31.877 40.5572C31.877 40.9413 32.2749 41.2233 32.6451 41.3253C33.3008 41.5059 33.7973 41.3253 33.7973 41.3253Z" fill="#EEEEEE"/>
<path d="M22.6596 34.4126C22.7227 34.0478 22.9307 34.4833 22.9307 34.4833C22.9307 34.4833 23.0382 34.7037 23.0437 34.7967C23.0492 34.8896 23.4277 34.0286 23.4277 33.2605V32.4924C23.4277 32.1025 23.1891 31.5543 23.0437 31.5543C22.4689 31.5543 21.3239 32.2921 21.1234 32.8765C20.728 34.0286 21.0217 40.0178 21.0217 40.0178C21.0217 40.0178 20.9473 41.2324 21.1234 41.3253C21.6717 41.6146 23.0437 41.4179 23.0437 40.5572C23.0437 39.9222 22.3199 40.0178 22.3199 40.0178C22.3199 40.0178 22.558 35.0006 22.6596 34.4126Z" fill="#EEEEEE"/>
<path d="M22.1626 14.3056L8.06543 8.93879L16.4356 16.0946L8.06543 20.7458L16.8762 18.5991L11.8156 25.0393L18.1978 21.8192L16.8988 24.8117L18.1978 25.3971C18.1978 25.3971 18.8023 28.1999 19.9599 29.3328C20.9405 30.2923 23.8118 30.5723 25.348 30.7639C25.4723 30.7794 25.348 31.1217 25.348 31.1217C25.348 31.1217 25.2803 31.1297 24.7381 31.235C24.2591 31.3281 24.503 34.0362 24.3016 36.255C24.2873 36.4118 23.8309 35.798 23.8118 35.9488C23.7952 36.0797 24.1959 36.9743 24.1959 37.1009C24.1959 37.4849 24.4548 38.9413 24.5799 40.0686C24.7051 41.1958 24.6315 41.8508 24.8029 42.9719C24.9309 43.8096 25.1786 45.0755 25.1786 45.0755L24.7381 45.7911C24.7381 45.7911 24.5912 46.3286 25.348 46.3178C26.0595 46.3076 26.7369 46.3476 26.7738 45.7911C26.7926 45.5081 26.5317 45.3571 26.5002 45.0755C26.4227 44.3822 26.4084 43.6295 26.5002 42.9719C26.6132 42.1628 26.4758 41.5194 27.2683 41.5059C28.1461 41.491 28.1155 42.2039 28.1946 42.9719C28.2541 43.5504 28.1946 44.6898 28.1946 45.0755C28.1946 45.4121 28.0364 45.5497 27.9681 45.7911C27.8008 46.3819 28.4205 46.3178 29.1886 46.3178C29.9755 46.2823 29.9567 45.7911 29.9567 45.7911L29.5162 45.0755C29.5162 45.0755 29.7855 43.8207 29.9567 42.9719C30.1732 41.8995 30.2843 41.4231 30.3408 40.1732C30.3621 39.7025 30.7248 37.1009 30.7248 37.1009C30.7248 37.1009 31.1597 35.7572 31.1089 35.5647C31.0893 35.4904 30.5734 36.3945 30.5734 36.3945C30.5734 36.3945 30.3408 35.4545 30.3408 34.7967C30.3408 32.4924 30.1866 31.4316 29.9567 31.3403C29.7269 31.2491 28.9482 31.1217 28.9482 31.1217C28.9482 31.1217 28.8554 30.7556 29.1095 30.7639C29.1095 30.7639 33.4133 30.5723 34.5654 29.3328C35.7176 28.0933 35.7176 25.5798 35.7176 25.5798L37.1409 24.8117L36.4857 21.8192L38.022 21.5139L36.2598 18.5991L37.5814 16.4524L34.9382 17.5257L26.1274 10.4448V13.9478L18.3107 8.2981L22.1626 14.3056Z" stroke="#EEEEEE" stroke-width="0.2"/>
<path d="M33.7973 41.3253C33.7973 41.3253 34.0345 41.3339 34.0345 40.0686C34.0345 40.0686 33.8372 34.0651 33.4133 32.8765C33.1917 32.2553 32.0774 31.6862 31.5932 31.5543C31.1089 31.4225 31.493 32.4924 31.493 33.2605C31.493 34.4126 31.4337 34.8563 31.493 34.7967C31.5725 34.7167 31.7854 34.1522 31.877 34.4126C32.5527 36.3328 32.6451 39.9796 32.6451 39.9796C32.6451 39.9796 31.877 40.0686 31.877 40.5572C31.877 40.9413 32.2749 41.2233 32.6451 41.3253C33.3008 41.5059 33.7973 41.3253 33.7973 41.3253Z" stroke="#EEEEEE" stroke-width="0.2"/>
<path d="M22.6596 34.4126C22.7227 34.0478 22.9307 34.4833 22.9307 34.4833C22.9307 34.4833 23.0382 34.7037 23.0437 34.7967C23.0492 34.8896 23.4277 34.0286 23.4277 33.2605V32.4924C23.4277 32.1025 23.1891 31.5543 23.0437 31.5543C22.4689 31.5543 21.3239 32.2921 21.1234 32.8765C20.728 34.0286 21.0217 40.0178 21.0217 40.0178C21.0217 40.0178 20.9473 41.2324 21.1234 41.3253C21.6717 41.6146 23.0437 41.4179 23.0437 40.5572C23.0437 39.9222 22.3199 40.0178 22.3199 40.0178C22.3199 40.0178 22.558 35.0006 22.6596 34.4126Z" stroke="#EEEEEE" stroke-width="0.2"/>
</g>
<g id="Group 62">
<circle id="Ellipse 11" cx="26.5" cy="26.7329" r="25.5" stroke="#EEEEEE" stroke-width="2"/>
</g>
</g>
</svg>
