<svg width="32" height="34" viewBox="0 0 32 34" fill="none" xmlns="http://www.w3.org/2000/svg">
<g id="discord-line 1" clip-path="url(#clip0_168_3760)">
<g id="Group">
<path id="Vector" d="M20.004 5.66675C20.3493 5.66675 20.7826 5.76308 21.1306 5.85375C22.344 6.16542 23.7826 6.55217 24.804 7.36675C25.7546 8.12467 26.4933 9.44642 27.064 10.7894C28.2506 13.5873 29.076 17.3174 29.3613 20.1536C29.4973 21.4994 29.5306 22.8538 29.2866 23.7647C29.1666 24.2123 28.9066 24.5495 28.724 24.7563C28.1666 25.3839 27.4493 25.8528 26.74 26.2792L26.388 26.4903C26.1561 26.6274 25.9228 26.7615 25.688 26.8927L24.992 27.2752L24.036 27.7809L23.2666 28.1832C22.9851 28.3331 22.6628 28.3722 22.3567 28.2937C22.0506 28.2152 21.7805 28.0242 21.5943 27.7544C21.4081 27.4846 21.3178 27.1535 21.3393 26.8197C21.3608 26.4859 21.4929 26.171 21.712 25.9308L21.1333 24.7011C19.4694 25.2383 17.739 25.5077 16 25.5001C14.1733 25.5001 12.4306 25.2168 10.8666 24.7011L10.2893 25.9279C10.5093 26.1678 10.6421 26.4827 10.6643 26.8167C10.6865 27.1507 10.5967 27.4823 10.4106 27.7527C10.2246 28.023 9.95447 28.2146 9.64815 28.2934C9.34183 28.3722 9.01913 28.3332 8.73731 28.1832L8.01198 27.8008C7.20665 27.3786 6.40131 26.9564 5.61731 26.4903C4.79864 26.0044 3.93064 25.4873 3.28131 24.7549C3.02219 24.4766 2.82929 24.1367 2.71864 23.7633C2.47331 22.8538 2.50798 21.5008 2.64264 20.1536C2.92798 17.3174 3.75331 13.5873 4.94131 10.7894C5.51065 9.44642 6.24931 8.12467 7.19998 7.36675C8.22131 6.55217 9.65998 6.16542 10.8733 5.85375C11.2213 5.76308 11.6533 5.66675 12 5.66675C12.1917 5.66657 12.3813 5.71035 12.5557 5.79509C12.7301 5.87982 12.8852 6.00353 13.0105 6.15777C13.1358 6.31201 13.2283 6.49315 13.2817 6.68883C13.3351 6.88451 13.3482 7.09013 13.32 7.29167C14.2073 7.15218 15.103 7.08257 16 7.08342C16.9213 7.08342 17.8213 7.15425 18.6853 7.29308C18.6569 7.09144 18.6698 6.88567 18.7231 6.68981C18.7764 6.49395 18.8689 6.31263 18.9942 6.15823C19.1195 6.00383 19.2748 5.87999 19.4493 5.79517C19.6237 5.71035 19.8121 5.66654 20.004 5.66675ZM21.8093 9.01433C21.6093 8.94633 21.5613 8.97608 21.4893 9.10358L21.4066 9.26225C21.1911 9.65475 20.8639 9.96445 20.4722 10.1467C20.0804 10.329 19.6443 10.3745 19.2266 10.2766C18.1662 10.0347 17.0845 9.91409 16 9.91675C14.864 9.91675 13.7773 10.0442 12.7733 10.2766C12.3557 10.3745 11.9196 10.329 11.5278 10.1467C11.136 9.96445 10.8088 9.65475 10.5933 9.26225L10.5106 9.105C10.44 8.9775 10.392 8.94775 10.1933 9.01433C9.71865 9.17442 9.20931 9.34583 8.79998 9.63342C8.41731 9.938 7.90664 10.6959 7.37198 11.9553C6.35064 14.3594 5.55065 17.911 5.29465 20.4553C5.24131 20.9923 5.21331 21.4527 5.20665 21.8323V22.2488C5.21198 22.501 5.22931 22.7008 5.25331 22.8452C5.59198 23.198 6.01065 23.4743 6.43064 23.7278L7.33998 24.2619L7.93465 24.5948L8.41998 23.5635C8.185 23.3309 8.03695 23.0159 8.00304 22.6766C7.96913 22.3373 8.05165 21.9963 8.23541 21.7165C8.41918 21.4366 8.69185 21.2366 9.0033 21.1533C9.31474 21.0699 9.64404 21.1088 9.93064 21.2628C11.552 22.1284 13.6613 22.6667 16 22.6667C18.3373 22.6667 20.448 22.1256 22.0693 21.2643C22.3437 21.1182 22.657 21.0772 22.9566 21.1481C23.2561 21.219 23.5234 21.3976 23.7134 21.6536C23.9035 21.9096 24.0046 22.2274 23.9997 22.5534C23.9948 22.8794 23.8842 23.1936 23.6866 23.4431L23.58 23.5635L24.0653 24.5977C24.4626 24.3795 24.8613 24.1486 25.2613 23.9134C25.7813 23.6074 26.328 23.2858 26.7506 22.8467C26.7746 22.7008 26.7906 22.501 26.7973 22.2488V21.8323C26.7865 21.3717 26.7571 20.9118 26.7093 20.4539C26.4533 17.911 25.6533 14.3594 24.632 11.9539C24.0986 10.6959 23.5866 9.938 23.2053 9.63342C22.7946 9.34583 22.2853 9.17442 21.8093 9.01433ZM11.6666 14.8751C12.2855 14.8751 12.879 15.1363 13.3166 15.6012C13.7541 16.0661 14 16.6967 14 17.3542C14 18.0118 13.7541 18.6424 13.3166 19.1073C12.879 19.5722 12.2855 19.8334 11.6666 19.8334C11.0478 19.8334 10.4543 19.5722 10.0167 19.1073C9.57914 18.6424 9.33331 18.0118 9.33331 17.3542C9.33331 16.6967 9.57914 16.0661 10.0167 15.6012C10.4543 15.1363 11.0478 14.8751 11.6666 14.8751ZM20.3333 14.8751C20.9522 14.8751 21.5456 15.1363 21.9832 15.6012C22.4208 16.0661 22.6666 16.6967 22.6666 17.3542C22.6666 18.0118 22.4208 18.6424 21.9832 19.1073C21.5456 19.5722 20.9522 19.8334 20.3333 19.8334C19.7145 19.8334 19.121 19.5722 18.6834 19.1073C18.2458 18.6424 18 18.0118 18 17.3542C18 16.6967 18.2458 16.0661 18.6834 15.6012C19.121 15.1363 19.7145 14.8751 20.3333 14.8751Z" fill="white"/>
</g>
</g>
<defs>
<clipPath id="clip0_168_3760">
<rect width="32" height="34" fill="white"/>
</clipPath>
</defs>
</svg>
