<svg width="34" height="39" viewBox="0 0 34 39" fill="none" xmlns="http://www.w3.org/2000/svg">
<g id="heart 1">
<path id="Vector" d="M27.7382 19.9738L17.3236 31.775L6.90896 19.9738C6.22202 19.209 5.68092 18.2897 5.31975 17.2739C4.95858 16.2581 4.78515 15.1677 4.81039 14.0715C4.83563 12.9752 5.05899 11.8968 5.4664 10.9042C5.87382 9.9115 6.45646 9.02612 7.17764 8.30376C7.89882 7.5814 8.74292 7.0377 9.65677 6.70691C10.5706 6.37612 11.5345 6.26541 12.4876 6.38173C13.4406 6.49805 14.3624 6.8389 15.1947 7.38281C16.027 7.92671 16.7518 8.6619 17.3236 9.54206C17.8978 8.66829 18.6235 7.93953 19.4553 7.40139C20.287 6.86326 21.2069 6.52734 22.1573 6.41465C23.1077 6.30196 24.0682 6.41493 24.9787 6.74649C25.8893 7.07805 26.7301 7.62107 27.4488 8.34155C28.1674 9.06203 28.7484 9.94446 29.1552 10.9336C29.5621 11.9228 29.7861 12.9974 29.8133 14.0902C29.8404 15.183 29.6702 16.2704 29.3131 17.2844C28.9561 18.2984 28.4199 19.2172 27.7382 19.9833" stroke="white" stroke-width="2" stroke-linecap="round" stroke-linejoin="round"/>
</g>
</svg>
