<svg width="32" height="34" viewBox="0 0 32 34" fill="none" xmlns="http://www.w3.org/2000/svg">
<g id="twitter-line 1">
<path id="Vector" d="M20.4666 7.8625C19.4535 7.86231 18.4807 8.28464 17.7576 9.03863C17.0345 9.79262 16.6188 10.818 16.6 11.8943L16.5626 14.1256C16.5606 14.2455 16.5348 14.3636 16.4868 14.4722C16.4387 14.5807 16.3696 14.6772 16.284 14.7554C16.1984 14.8335 16.0981 14.8915 15.9899 14.9256C15.8816 14.9596 15.7679 14.9689 15.656 14.9529L13.5733 14.6512C10.836 14.2545 8.21198 12.9158 5.69331 10.6873C4.89731 15.3765 6.45331 18.6249 10.204 21.131L12.5333 22.6865C12.6438 22.7603 12.7356 22.8618 12.8007 22.982C12.8658 23.1022 12.9023 23.2374 12.9069 23.376C12.9115 23.5146 12.8841 23.6523 12.8271 23.7771C12.7701 23.9018 12.6853 24.0099 12.58 24.0918L10.4573 25.7408C11.72 25.8258 12.9186 25.7663 13.9133 25.5567C20.204 24.2222 24.3866 19.193 24.3866 10.897C24.3866 10.2198 23.036 7.8625 20.4666 7.8625ZM13.9333 11.8433C13.9566 10.4777 14.3585 9.14978 15.0887 8.02573C15.819 6.90168 16.845 6.03149 18.0385 5.5241C19.232 5.01672 20.5399 4.8947 21.7983 5.17331C23.0568 5.45192 24.2099 6.11879 25.1133 7.09042C26.0613 7.08333 26.868 7.33833 28.6706 6.17525C28.2253 8.49858 28.004 9.50867 27.0533 10.8956C27.0533 21.7203 20.7906 26.9861 14.4346 28.3333C10.0786 29.257 3.74131 27.7398 1.92798 25.7238C2.85198 25.6488 6.61198 25.2195 8.78531 23.528C6.94531 22.2388 -0.372022 17.663 4.43731 5.3635C6.69465 8.16425 8.98398 10.0697 11.304 11.0826C12.8466 11.7555 13.2266 11.7413 13.9346 11.8447L13.9333 11.8433Z" fill="white"/>
</g>
</svg>
