<svg width="40" height="40" viewBox="0 0 40 40" fill="none" xmlns="http://www.w3.org/2000/svg">
<path d="M31.0352 26.6367C31.8164 26.6367 32.5846 26.5911 33.3398 26.5C34.1081 26.4089 34.8307 26.2852 35.5078 26.1289C36.1979 25.9727 36.8099 25.7839 37.3438 25.5625C37.5781 25.4844 37.7669 25.4323 37.9102 25.4062C38.0534 25.3802 38.2031 25.3672 38.3594 25.3672C38.6589 25.3672 38.9453 25.4909 39.2188 25.7383C39.5052 25.9857 39.6484 26.3112 39.6484 26.7148C39.6484 26.819 39.6289 26.9753 39.5898 27.1836C39.5638 27.3789 39.4922 27.6068 39.375 27.8672C38.3203 30.3021 36.8815 32.3984 35.0586 34.1562C33.2357 35.9141 31.1133 37.2617 28.6914 38.1992C26.2695 39.1497 23.6458 39.625 20.8203 39.625C17.8516 39.625 15.1172 39.1172 12.6172 38.1016C10.1302 37.0859 7.96875 35.6602 6.13281 33.8242C4.29688 31.9883 2.87109 29.8268 1.85547 27.3398C0.852865 24.8398 0.351562 22.1055 0.351562 19.1367C0.351562 16.4023 0.872396 13.7917 1.91406 11.3047C2.96875 8.80469 4.42057 6.60417 6.26953 4.70312C8.11849 2.80208 10.2474 1.36328 12.6562 0.386719C12.9297 0.269531 13.1576 0.197917 13.3398 0.171875C13.5221 0.132812 13.6523 0.113281 13.7305 0.113281C14.1471 0.113281 14.4857 0.269531 14.7461 0.582031C15.0195 0.88151 15.1562 1.19401 15.1562 1.51953C15.1562 1.71484 15.1302 1.89714 15.0781 2.06641C15.0391 2.23568 14.9479 2.46354 14.8047 2.75C14.4401 3.45312 14.1471 4.42318 13.9258 5.66016C13.7044 6.89714 13.5938 8.25781 13.5938 9.74219C13.5938 13.2188 14.2969 16.2201 15.7031 18.7461C17.1224 21.2721 19.1341 23.2188 21.7383 24.5859C24.3555 25.9531 27.4544 26.6367 31.0352 26.6367ZM3.41797 19C3.41797 21.5521 3.84766 23.9023 4.70703 26.0508C5.57943 28.1862 6.80339 30.0417 8.37891 31.6172C9.95443 33.1927 11.8099 34.4102 13.9453 35.2695C16.0807 36.1419 18.4115 36.5781 20.9375 36.5781C23.0339 36.5781 25.0326 36.2591 26.9336 35.6211C28.8477 34.9961 30.5729 34.0911 32.1094 32.9062C33.6589 31.7214 34.9284 30.3151 35.918 28.6875C35.1107 28.974 34.2708 29.1823 33.3984 29.3125C32.526 29.4297 31.5885 29.4883 30.5859 29.4883C26.4323 29.4883 22.8646 28.7135 19.8828 27.1641C16.9141 25.6146 14.6354 23.388 13.0469 20.4844C11.4714 17.5677 10.6836 14.0781 10.6836 10.0156C10.6836 8.89583 10.7617 7.83464 10.918 6.83203C11.0872 5.81641 11.3281 4.85938 11.6406 3.96094C9.96094 5.01562 8.5026 6.33073 7.26562 7.90625C6.04167 9.48177 5.09115 11.2201 4.41406 13.1211C3.75 15.0221 3.41797 16.9818 3.41797 19Z" fill="white"/>
</svg>
