<svg width="38" height="40" viewBox="0 0 38 40" fill="none" xmlns="http://www.w3.org/2000/svg">
<path d="M0.855469 31.1875C0.855469 30.5234 1.03776 29.8919 1.40234 29.293C1.76693 28.681 2.21615 28.0885 2.75 27.5156C3.29688 26.9297 3.84375 26.3503 4.39062 25.7773C4.91146 25.2044 5.30208 24.4622 5.5625 23.5508C5.82292 22.6263 6.01172 21.6367 6.12891 20.582C6.24609 19.5273 6.36328 18.4792 6.48047 17.4375C6.57161 15.224 6.87109 13.2513 7.37891 11.5195C7.89974 9.78776 8.67448 8.33594 9.70312 7.16406C10.7318 5.99219 12.0729 5.13932 13.7266 4.60547C14 3.29036 14.6055 2.20312 15.543 1.34375C16.4935 0.484375 17.6458 0.0546875 19 0.0546875C20.3542 0.0546875 21.5 0.484375 22.4375 1.34375C23.388 2.20312 24 3.29036 24.2734 4.60547C25.9271 5.13932 27.2682 5.99219 28.2969 7.16406C29.3255 8.33594 30.0938 9.78776 30.6016 11.5195C31.1224 13.2513 31.4349 15.224 31.5391 17.4375C31.6432 18.4792 31.7539 19.5273 31.8711 20.582C31.9883 21.6367 32.1771 22.6263 32.4375 23.5508C32.6979 24.4622 33.0951 25.2044 33.6289 25.7773C34.1628 26.3503 34.7031 26.9297 35.25 27.5156C35.7969 28.0885 36.2461 28.681 36.5977 29.293C36.9622 29.8919 37.1445 30.5234 37.1445 31.1875C37.1445 31.7604 36.9427 32.2161 36.5391 32.5547C36.1354 32.8932 35.582 33.0625 34.8789 33.0625H25.6406C25.6016 34.2995 25.2891 35.4193 24.7031 36.4219C24.1302 37.4375 23.349 38.2448 22.3594 38.8438C21.3828 39.4427 20.263 39.7422 19 39.7422C17.737 39.7422 16.6107 39.4362 15.6211 38.8242C14.6445 38.2253 13.8698 37.4245 13.2969 36.4219C12.724 35.4193 12.418 34.2995 12.3789 33.0625H3.12109C2.41797 33.0625 1.86458 32.8932 1.46094 32.5547C1.05729 32.2161 0.855469 31.7604 0.855469 31.1875ZM3.72656 30.7969H34.2734V30.582C34.1953 30.3216 34.013 30.0026 33.7266 29.625C33.4531 29.2474 33.1276 28.8503 32.75 28.4336C32.3724 28.0169 31.9948 27.6068 31.6172 27.2031C31.1615 26.7214 30.7969 26.1484 30.5234 25.4844C30.25 24.8203 30.0286 24.0781 29.8594 23.2578C29.6901 22.4375 29.5534 21.5586 29.4492 20.6211C29.3451 19.6836 29.2474 18.7005 29.1562 17.6719C29.026 15.276 28.7005 13.3294 28.1797 11.832C27.6719 10.3216 26.9883 9.16927 26.1289 8.375C25.2695 7.58073 24.2734 7.02734 23.1406 6.71484C22.8672 6.64974 22.6458 6.54557 22.4766 6.40234C22.3203 6.25911 22.2292 6.05078 22.2031 5.77734C22.138 4.77474 21.8255 3.94141 21.2656 3.27734C20.7057 2.61328 19.9505 2.28125 19 2.28125C18.0495 2.28125 17.2943 2.61328 16.7344 3.27734C16.1875 3.94141 15.875 4.77474 15.7969 5.77734C15.7708 6.05078 15.6732 6.25911 15.5039 6.40234C15.3477 6.54557 15.1328 6.64974 14.8594 6.71484C13.7135 7.02734 12.7109 7.58073 11.8516 8.375C11.0052 9.16927 10.3216 10.3216 9.80078 11.832C9.29297 13.3294 8.97396 15.276 8.84375 17.6719C8.7526 18.7005 8.65495 19.6836 8.55078 20.6211C8.44661 21.5586 8.3099 22.4375 8.14062 23.2578C7.97135 24.0781 7.74349 24.8203 7.45703 25.4844C7.18359 26.1484 6.82552 26.7214 6.38281 27.2031C6.00521 27.6068 5.6276 28.0169 5.25 28.4336C4.8724 28.8503 4.54036 29.2474 4.25391 29.625C3.98047 30.0026 3.80469 30.3216 3.72656 30.582V30.7969ZM14.7031 33.0625C14.7812 34.4557 15.2174 35.556 16.0117 36.3633C16.806 37.1836 17.8021 37.5938 19 37.5938C20.2109 37.5938 21.207 37.1836 21.9883 36.3633C22.7826 35.556 23.2188 34.4557 23.2969 33.0625H14.7031Z" fill="#404040"/>
</svg>
