<svg width="36" height="36" viewBox="0 0 36 36" fill="none" xmlns="http://www.w3.org/2000/svg">
<path d="M1.20312 17.4883H10.9688C10.0703 17.1237 9.26302 16.6549 8.54688 16.082C7.83073 15.4961 7.25781 14.832 6.82812 14.0898C6.41146 13.3346 6.20312 12.5273 6.20312 11.668C6.20312 10.2878 6.6263 9.16797 7.47266 8.30859C8.33203 7.4362 9.42578 7 10.7539 7C11.6133 7 12.4401 7.19531 13.2344 7.58594C14.0417 7.97656 14.7708 8.52995 15.4219 9.24609C16.0729 9.94922 16.6133 10.7695 17.043 11.707V1.80469H18.918V11.707C19.3477 10.7695 19.888 9.94922 20.5391 9.24609C21.1901 8.52995 21.9193 7.97656 22.7266 7.58594C23.5339 7.19531 24.3607 7 25.207 7C26.5352 7 27.6224 7.4362 28.4688 8.30859C29.3281 9.16797 29.7578 10.2878 29.7578 11.668C29.7578 12.5273 29.543 13.3346 29.1133 14.0898C28.6966 14.832 28.1302 15.4961 27.4141 16.082C26.6979 16.6549 25.8906 17.1237 24.9922 17.4883H34.7773V19.2266H20.3633C20.7539 20.0078 21.2812 20.8021 21.9453 21.6094C22.6094 22.4167 23.3385 23.1654 24.1328 23.8555C24.9401 24.5456 25.7409 25.1185 26.5352 25.5742C27.3294 26.0299 28.0586 26.2969 28.7227 26.375C29.1523 26.4271 29.4714 26.5703 29.6797 26.8047C29.901 27.026 30.0117 27.3255 30.0117 27.7031C30.0117 28.0417 29.888 28.3411 29.6406 28.6016C29.3932 28.862 29.0482 28.9531 28.6055 28.875C27.8893 28.7448 27.082 28.4518 26.1836 27.9961C25.2852 27.5404 24.3737 26.9414 23.4492 26.1992C22.5247 25.457 21.6719 24.6042 20.8906 23.6406C20.1094 22.6771 19.4909 21.6159 19.0352 20.457H18.918V34.7148H17.043V20.457H16.9258C16.4701 21.6159 15.8516 22.6771 15.0703 23.6406C14.2891 24.6042 13.4362 25.457 12.5117 26.1992C11.6003 26.9414 10.6888 27.5404 9.77734 27.9961C8.87891 28.4518 8.07161 28.7448 7.35547 28.875C6.92578 28.9531 6.58073 28.862 6.32031 28.6016C6.07292 28.3411 5.94922 28.0417 5.94922 27.7031C5.94922 27.3255 6.05339 27.026 6.26172 26.8047C6.48307 26.5703 6.80859 26.4271 7.23828 26.375C7.90234 26.2969 8.63151 26.0299 9.42578 25.5742C10.2201 25.1185 11.0208 24.5456 11.8281 23.8555C12.6354 23.1654 13.3711 22.4167 14.0352 21.6094C14.6992 20.8021 15.2201 20.0078 15.5977 19.2266H1.20312V17.4883ZM16.1641 17.1953H16.75V16.6875C16.75 15.6719 16.5872 14.7083 16.2617 13.7969C15.9362 12.8854 15.4935 12.0781 14.9336 11.375C14.3867 10.6589 13.7617 10.099 13.0586 9.69531C12.3555 9.27865 11.6198 9.07031 10.8516 9.07031C10.1094 9.07031 9.50391 9.3112 9.03516 9.79297C8.57943 10.2617 8.35156 10.9062 8.35156 11.7266C8.35156 12.3906 8.5599 13.0482 8.97656 13.6992C9.40625 14.3503 9.98568 14.9427 10.7148 15.4766C11.444 16.0104 12.2773 16.4336 13.2148 16.7461C14.1523 17.0456 15.1354 17.1953 16.1641 17.1953ZM19.7969 17.1953C20.8255 17.1953 21.8086 17.0456 22.7461 16.7461C23.6966 16.4336 24.5299 16.0104 25.2461 15.4766C25.9753 14.9427 26.5482 14.3503 26.9648 13.6992C27.3945 13.0482 27.6094 12.3906 27.6094 11.7266C27.6094 10.9062 27.3815 10.2617 26.9258 9.79297C26.4701 9.3112 25.8646 9.07031 25.1094 9.07031C24.3542 9.07031 23.625 9.27865 22.9219 9.69531C22.2188 10.099 21.5872 10.6589 21.0273 11.375C20.4674 12.0781 20.0247 12.8854 19.6992 13.7969C19.3737 14.7083 19.2109 15.6719 19.2109 16.6875V17.1953H19.7969ZM33.4297 2.48828C34.3281 3.38672 34.9141 4.47396 35.1875 5.75C35.4609 7.02604 35.5977 8.54948 35.5977 10.3203V25.457C35.5977 27.2409 35.4609 28.7708 35.1875 30.0469C34.9141 31.3099 34.3281 32.3971 33.4297 33.3086C32.5182 34.207 31.418 34.7995 30.1289 35.0859C28.8529 35.3724 27.3294 35.5156 25.5586 35.5156H10.4219C8.65104 35.5156 7.12109 35.3724 5.83203 35.0859C4.55599 34.7995 3.46224 34.207 2.55078 33.3086C1.65234 32.4102 1.06641 31.3229 0.792969 30.0469C0.519531 28.7708 0.382812 27.2409 0.382812 25.457V10.2031C0.382812 8.4974 0.519531 7.01302 0.792969 5.75C1.07943 4.48698 1.67188 3.39974 2.57031 2.48828C3.46875 1.58984 4.55599 0.997396 5.83203 0.710938C7.10807 0.424479 8.59896 0.28125 10.3047 0.28125H25.5586C27.3294 0.28125 28.8529 0.424479 30.1289 0.710938C31.418 0.997396 32.5182 1.58984 33.4297 2.48828ZM33.1953 9.8125C33.1953 8.65365 33.0846 7.58594 32.8633 6.60938C32.6549 5.63281 32.2513 4.85156 31.6523 4.26562C31.0534 3.65365 30.2591 3.23698 29.2695 3.01562C28.293 2.79427 27.2318 2.68359 26.0859 2.68359H10.0312C8.82031 2.68359 7.71354 2.79427 6.71094 3.01562C5.70833 3.23698 4.90755 3.64714 4.30859 4.24609C3.72266 4.84505 3.31901 5.63932 3.09766 6.62891C2.88932 7.61849 2.78516 8.71875 2.78516 9.92969V25.9844C2.78516 27.1432 2.88932 28.2109 3.09766 29.1875C3.31901 30.151 3.72917 30.9323 4.32812 31.5312C4.92708 32.1302 5.71484 32.5404 6.69141 32.7617C7.68099 32.9961 8.7487 33.1133 9.89453 33.1133H26.0859C27.2318 33.1133 28.293 33.0026 29.2695 32.7812C30.2591 32.5599 31.0534 32.1432 31.6523 31.5312C32.2383 30.9323 32.6419 30.151 32.8633 29.1875C33.0846 28.2109 33.1953 27.1432 33.1953 25.9844V9.8125Z" fill="#404040"/>
</svg>
