<svg width="38" height="42" viewBox="0 0 38 42" fill="none" xmlns="http://www.w3.org/2000/svg">
<path d="M0.980469 6.11328C0.980469 5.21484 1.25391 4.50521 1.80078 3.98438C2.34766 3.46354 3.09635 3.20312 4.04688 3.20312H7.46484C7.56901 2.23958 7.93359 1.49089 8.55859 0.957031C9.19661 0.410156 10.0365 0.136719 11.0781 0.136719H27.1719C28.2396 0.136719 29.0859 0.410156 29.7109 0.957031C30.3359 1.50391 30.694 2.2526 30.7852 3.20312H34.2227C35.1602 3.20312 35.9023 3.46354 36.4492 3.98438C36.9961 4.50521 37.2695 5.21484 37.2695 6.11328C37.2695 8.66536 36.8854 10.8854 36.1172 12.7734C35.349 14.6615 34.1966 16.2695 32.6602 17.5977C31.1367 18.9128 29.2227 20 26.918 20.8594C26.293 21.7318 25.6159 22.5 24.8867 23.1641C24.1706 23.8151 23.4674 24.3424 22.7773 24.7461V33.0664H25.6875C26.8854 33.0664 27.7969 33.3919 28.4219 34.043C29.0599 34.694 29.3789 35.5924 29.3789 36.7383V40.5273C29.3789 40.8659 29.2617 41.1393 29.0273 41.3477C28.806 41.556 28.5326 41.6602 28.207 41.6602H10.043C9.71745 41.6602 9.4375 41.556 9.20312 41.3477C8.98177 41.1393 8.87109 40.8659 8.87109 40.5273V36.7383C8.87109 35.5924 9.18359 34.694 9.80859 34.043C10.4466 33.3919 11.3646 33.0664 12.5625 33.0664H15.4727V24.7461C14.7826 24.3424 14.0729 23.8151 13.3438 23.1641C12.6276 22.5 11.9635 21.7318 11.3516 20.8594C9.03385 20 7.10677 18.9128 5.57031 17.5977C4.04688 16.2695 2.90104 14.6615 2.13281 12.7734C1.36458 10.8854 0.980469 8.66536 0.980469 6.11328ZM3.14844 6.30859C3.14844 9.09505 3.67578 11.4323 4.73047 13.3203C5.78516 15.1953 7.3151 16.6797 9.32031 17.7734C8.7474 16.6016 8.27865 15.3451 7.91406 14.0039C7.5625 12.6628 7.38672 11.25 7.38672 9.76562V5.46875H3.98828C3.74089 5.46875 3.53906 5.55339 3.38281 5.72266C3.22656 5.87891 3.14844 6.07422 3.14844 6.30859ZM9.67188 10.3125C9.67188 11.6536 9.88672 12.9753 10.3164 14.2773C10.7591 15.5794 11.332 16.8034 12.0352 17.9492C12.7513 19.0951 13.5326 20.1107 14.3789 20.9961C15.2253 21.8815 16.0586 22.5781 16.8789 23.0859C17.7122 23.5938 18.4609 23.8477 19.125 23.8477C19.7891 23.8477 20.5312 23.5938 21.3516 23.0859C22.1849 22.5781 23.0247 21.8815 23.8711 20.9961C24.7174 20.1107 25.4922 19.0951 26.1953 17.9492C26.9115 16.8034 27.4844 15.5794 27.9141 14.2773C28.3568 12.9753 28.5781 11.6536 28.5781 10.3125V3.80859C28.5781 3.39193 28.4479 3.05339 28.1875 2.79297C27.9271 2.53255 27.5885 2.40234 27.1719 2.40234H11.0781C10.6615 2.40234 10.3229 2.53255 10.0625 2.79297C9.80208 3.05339 9.67188 3.39193 9.67188 3.80859V10.3125ZM11.1562 39.3945H27.0938V36.7383C27.0938 36.3086 26.9635 35.9701 26.7031 35.7227C26.4557 35.4753 26.1172 35.3516 25.6875 35.3516H12.5625C12.1328 35.3516 11.7878 35.4753 11.5273 35.7227C11.2799 35.9701 11.1562 36.3086 11.1562 36.7383V39.3945ZM17.7578 33.0664H20.4922V25.8789C20.0104 26.0221 19.5547 26.0938 19.125 26.0938C18.6953 26.0938 18.2396 26.0221 17.7578 25.8789V33.0664ZM28.9297 17.7734C30.9349 16.6797 32.4648 15.1953 33.5195 13.3203C34.5742 11.4323 35.1016 9.09505 35.1016 6.30859C35.1016 6.07422 35.0234 5.87891 34.8672 5.72266C34.7109 5.55339 34.5091 5.46875 34.2617 5.46875H30.8633V9.76562C30.8633 11.25 30.681 12.6628 30.3164 14.0039C29.9648 15.3451 29.5026 16.6016 28.9297 17.7734Z" fill="#404040"/>
</svg>
