<svg width="56" height="36" viewBox="0 0 56 36" fill="none" xmlns="http://www.w3.org/2000/svg">
<path d="M12.3555 13.9727C12.3555 13.6211 12.4596 13.3346 12.668 13.1133C12.8893 12.8919 13.1953 12.7812 13.5859 12.7812H17.6875V8.66016C17.6875 8.28255 17.7917 7.98307 18 7.76172C18.2083 7.54036 18.4948 7.42969 18.8594 7.42969C19.224 7.42969 19.5104 7.54036 19.7188 7.76172C19.9401 7.98307 20.0508 8.28255 20.0508 8.66016V12.7812H23.9961C24.3997 12.7812 24.7188 12.8919 24.9531 13.1133C25.1875 13.3346 25.3047 13.6211 25.3047 13.9727C25.3047 14.3633 25.1875 14.6693 24.9531 14.8906C24.7188 15.112 24.3997 15.2227 23.9961 15.2227H20.0508V19.3438C20.0508 19.7214 19.9401 20.0273 19.7188 20.2617C19.5104 20.4831 19.224 20.5938 18.8594 20.5938C18.4948 20.5938 18.2083 20.4831 18 20.2617C17.7917 20.0273 17.6875 19.7214 17.6875 19.3438V15.2227H13.5859C13.1953 15.2227 12.8893 15.112 12.668 14.8906C12.4596 14.6693 12.3555 14.3633 12.3555 13.9727ZM40.0898 13.6016C39.3477 13.6016 38.7161 13.3477 38.1953 12.8398C37.6745 12.319 37.4141 11.694 37.4141 10.9648C37.4141 10.2096 37.6745 9.57812 38.1953 9.07031C38.7161 8.54948 39.3477 8.28906 40.0898 8.28906C40.819 8.28906 41.444 8.54948 41.9648 9.07031C42.4857 9.57812 42.7461 10.2096 42.7461 10.9648C42.7461 11.694 42.4857 12.319 41.9648 12.8398C41.444 13.3477 40.819 13.6016 40.0898 13.6016ZM34.1328 19.4609C33.4036 19.4609 32.7721 19.207 32.2383 18.6992C31.7174 18.1784 31.457 17.5469 31.457 16.8047C31.457 16.0625 31.7174 15.4375 32.2383 14.9297C32.7721 14.4089 33.4036 14.1484 34.1328 14.1484C34.862 14.1484 35.487 14.4089 36.0078 14.9297C36.5417 15.4375 36.8086 16.0625 36.8086 16.8047C36.8086 17.5469 36.5417 18.1784 36.0078 18.6992C35.487 19.207 34.862 19.4609 34.1328 19.4609ZM0.148438 28.0742C0.148438 27.1367 0.252604 26.1211 0.460938 25.0273C0.682292 23.9206 0.988281 22.7292 1.37891 21.4531C1.76953 20.112 2.2513 18.6536 2.82422 17.0781C3.39714 15.5026 4.00911 13.9141 4.66016 12.3125C5.32422 10.6979 5.99479 9.17448 6.67188 7.74219C7.21875 6.60938 7.72656 5.67188 8.19531 4.92969C8.66406 4.1875 9.26302 3.58854 9.99219 3.13281C10.7214 2.66406 11.7435 2.27995 13.0586 1.98047C14.9466 1.55078 17.1536 1.21224 19.6797 0.964844C22.2057 0.717448 24.9792 0.59375 28 0.59375C31.0339 0.59375 33.8073 0.717448 36.3203 0.964844C38.8464 1.21224 41.0534 1.55078 42.9414 1.98047C44.2565 2.27995 45.2786 2.66406 46.0078 3.13281C46.737 3.58854 47.3359 4.1875 47.8047 4.92969C48.2734 5.67188 48.7812 6.60938 49.3281 7.74219C49.9922 9.17448 50.6562 10.6979 51.3203 12.3125C51.9844 13.9141 52.6029 15.5026 53.1758 17.0781C53.7487 18.6536 54.2305 20.112 54.6211 21.4531C54.9987 22.7292 55.2982 23.9206 55.5195 25.0273C55.7409 26.1211 55.8516 27.1367 55.8516 28.0742C55.8516 29.5195 55.5521 30.7826 54.9531 31.8633C54.3672 32.944 53.5404 33.7773 52.4727 34.3633C51.418 34.9622 50.181 35.2617 48.7617 35.2617C47.694 35.2617 46.6458 35.0208 45.6172 34.5391C44.5885 34.0703 43.6771 33.3477 42.8828 32.3711L39.2695 27.9961C38.9831 27.6576 38.6966 27.4167 38.4102 27.2734C38.1237 27.1302 37.8242 27.0586 37.5117 27.0586H18.4688C18.1693 27.0586 17.8698 27.1302 17.5703 27.2734C17.2839 27.4167 17.0039 27.6576 16.7305 27.9961L13.1172 32.3711C12.3229 33.3477 11.4115 34.0703 10.3828 34.5391C9.35417 35.0208 8.30599 35.2617 7.23828 35.2617C5.81901 35.2617 4.57552 34.9622 3.50781 34.3633C2.45312 33.7773 1.6263 32.944 1.02734 31.8633C0.441406 30.7826 0.148438 29.5195 0.148438 28.0742ZM2.45312 28.1914C2.45312 29.6367 2.89583 30.7891 3.78125 31.6484C4.67969 32.5078 5.81901 32.9375 7.19922 32.9375C7.99349 32.9375 8.75521 32.7422 9.48438 32.3516C10.2266 31.9609 10.9036 31.3945 11.5156 30.6523L15.207 26.2188C15.6497 25.6849 16.099 25.2943 16.5547 25.0469C17.0234 24.7865 17.6419 24.6562 18.4102 24.6562H37.5898C38.3451 24.6562 38.957 24.7865 39.4258 25.0469C39.8945 25.2943 40.3503 25.6849 40.793 26.2188L44.4844 30.6523C45.7474 32.1758 47.1797 32.9375 48.7812 32.9375C50.1745 32.9375 51.3138 32.5078 52.1992 31.6484C53.0977 30.7891 53.5469 29.6367 53.5469 28.1914C53.5469 27.5664 53.4688 26.8438 53.3125 26.0234C53.1693 25.2031 52.9154 24.1615 52.5508 22.8984C52.1211 21.5052 51.6133 19.9818 51.0273 18.3281C50.4414 16.6745 49.8099 15.0078 49.1328 13.3281C48.4557 11.6354 47.7721 10.0469 47.082 8.5625C46.7565 7.85938 46.4375 7.23438 46.125 6.6875C45.8125 6.14062 45.4023 5.67839 44.8945 5.30078C44.3867 4.91016 43.6706 4.60417 42.7461 4.38281C40.9362 3.96615 38.7747 3.63411 36.2617 3.38672C33.7617 3.1263 31.0078 2.99609 28 2.99609C24.9922 2.99609 22.2318 3.1263 19.7188 3.38672C17.2188 3.63411 15.0638 3.96615 13.2539 4.38281C12.3294 4.59115 11.6068 4.89062 11.0859 5.28125C10.5781 5.67188 10.168 6.14062 9.85547 6.6875C9.54297 7.23438 9.22396 7.85938 8.89844 8.5625C8.23438 10.0469 7.55729 11.6354 6.86719 13.3281C6.1901 15.0078 5.55208 16.6745 4.95312 18.3281C4.36719 19.9818 3.86589 21.5052 3.44922 22.8984C3.07161 24.1615 2.8112 25.2031 2.66797 26.0234C2.52474 26.8438 2.45312 27.5664 2.45312 28.1914Z" fill="#404040"/>
</svg>
