<svg width="47" height="58" viewBox="0 0 47 58" fill="none" xmlns="http://www.w3.org/2000/svg">
<g id="COLLECTOR">
<path d="M21.7059 9.84814L1 1.94364L13.2941 12.483L1 19.3335L13.9412 16.1717L6.5083 25.6571L15.8824 20.9144L13.9744 25.3219L15.8824 26.1841C15.8824 26.1841 16.7702 30.3122 18.4706 31.9807C19.9109 33.394 24.1282 33.8063 26.3846 34.0886C26.5671 34.1114 26.3846 34.6156 26.3846 34.6156C26.3846 34.6156 26.2851 34.6273 25.4887 34.7824C24.7852 34.9195 25.1434 38.9082 24.8476 42.1761C24.8267 42.407 24.1562 41.503 24.1282 41.7251C24.1039 41.9179 24.6923 43.2355 24.6923 43.422C24.6923 43.9876 25.0726 46.1327 25.2564 47.7929C25.4403 49.4531 25.3321 50.4178 25.5838 52.0691C25.7719 53.3028 26.1357 55.1673 26.1357 55.1673L25.4887 56.2212C25.4887 56.2212 25.2729 57.0129 26.3846 56.997C27.4297 56.982 28.4245 57.0409 28.4788 56.2212C28.5064 55.8044 28.1231 55.582 28.0769 55.1673C27.9631 54.1462 27.9421 53.0376 28.0769 52.0691C28.2428 50.8774 28.0411 49.9297 29.2051 49.9099C30.4944 49.8879 30.4495 50.9378 30.5656 52.0691C30.6531 52.921 30.5656 54.5992 30.5656 55.1673C30.5656 55.6631 30.3333 55.8657 30.233 56.2212C29.9873 57.0915 30.8974 56.997 32.0256 56.997C33.1814 56.9448 33.1538 56.2212 33.1538 56.2212L32.5068 55.1673C32.5068 55.1673 32.9023 53.3191 33.1538 52.0691C33.4717 50.4895 33.635 49.7879 33.7179 47.947C33.7492 47.2537 34.2821 43.422 34.2821 43.422C34.2821 43.422 34.9208 41.443 34.8462 41.1595C34.8173 41.05 34.0596 42.3815 34.0596 42.3815C34.0596 42.3815 33.7179 40.997 33.7179 40.0282C33.7179 36.6344 33.4915 35.0719 33.1538 34.9376C32.8162 34.8032 31.6725 34.6156 31.6725 34.6156C31.6725 34.6156 31.5362 34.0764 31.9095 34.0886C31.9095 34.0886 38.2308 33.8063 39.9231 31.9807C41.6154 30.1551 41.6154 26.4532 41.6154 26.4532L43.7059 25.3219L42.7436 20.9144L45 20.4648L42.4118 16.1717L44.3529 13.0099L40.4706 14.5908L27.5294 4.1618V9.32117L16.0483 1L21.7059 9.84814Z" stroke="#404040" stroke-width="1.5"/>
<path d="M38.7949 49.6439C38.7949 49.6439 39.1433 49.6564 39.1433 47.7929C39.1433 47.7929 38.8535 38.9507 38.2308 37.2001C37.9053 36.2851 36.2687 35.4469 35.5574 35.2527C34.8462 35.0586 35.4103 36.6344 35.4103 37.7657C35.4103 39.4626 35.3231 40.116 35.4103 40.0282C35.5271 39.9105 35.8397 39.079 35.9744 39.4626C36.9668 42.2907 37.1026 47.6618 37.1026 47.6618C37.1026 47.6618 35.9744 47.7929 35.9744 48.5126C35.9744 49.0782 36.5587 49.4936 37.1026 49.6439C38.0656 49.9099 38.7949 49.6439 38.7949 49.6439Z" stroke="#404040" stroke-width="1.5"/>
<path d="M22.4359 39.4626C22.5286 38.9252 22.8341 39.5666 22.8341 39.5666C22.8341 39.5666 22.9919 39.8913 23 40.0282C23.0081 40.1651 23.5641 38.897 23.5641 37.7657V36.6344C23.5641 36.0601 23.2135 35.2527 23 35.2527C22.1558 35.2527 20.474 36.3393 20.1795 37.2001C19.5988 38.897 20.0302 47.7181 20.0302 47.7181C20.0302 47.7181 19.9209 49.507 20.1795 49.6439C20.9848 50.0699 23 49.7802 23 48.5126C23 47.5772 21.9369 47.7181 21.9369 47.7181C21.9369 47.7181 22.2866 40.3286 22.4359 39.4626Z" stroke="#404040" stroke-width="1.5"/>
</g>
</svg>
