<svg width="26" height="26" viewBox="0 0 26 26" fill="none" xmlns="http://www.w3.org/2000/svg">
<g id="gear-24 1">
<path id="Vector" d="M17.3333 12.9998C17.3333 14.1491 16.8767 15.2513 16.0641 16.064C15.2514 16.8766 14.1492 17.3332 13 17.3332C11.8507 17.3332 10.7485 16.8766 9.93583 16.064C9.12317 15.2513 8.66663 14.1491 8.66663 12.9998C8.66663 11.8506 9.12317 10.7484 9.93583 9.93571C10.7485 9.12305 11.8507 8.6665 13 8.6665C14.1492 8.6665 15.2514 9.12305 16.0641 9.93571C16.8767 10.7484 17.3333 11.8506 17.3333 12.9998ZM15.7083 12.9998C15.7083 12.2815 15.423 11.5927 14.915 11.0848C14.4071 10.5768 13.7183 10.2915 13 10.2915C12.2817 10.2915 11.5928 10.5768 11.0849 11.0848C10.577 11.5927 10.2916 12.2815 10.2916 12.9998C10.2916 13.7181 10.577 14.407 11.0849 14.9149C11.5928 15.4228 12.2817 15.7082 13 15.7082C13.7183 15.7082 14.4071 15.4228 14.915 14.9149C15.423 14.407 15.7083 13.7181 15.7083 12.9998Z" fill="white"/>
<path id="Vector_2" d="M13 1.0835C13.2881 1.0835 13.5763 1.09325 13.8634 1.11383C14.69 1.17341 15.3205 1.78225 15.5014 2.5265L15.8827 4.09733C15.9033 4.18183 15.9802 4.28258 16.1265 4.33675C16.3941 4.43316 16.6573 4.54258 16.9151 4.66391C17.056 4.73 17.1816 4.71158 17.2564 4.66608L18.6376 3.82541C19.2909 3.42675 20.1662 3.443 20.7935 3.98466C21.229 4.36275 21.6385 4.77116 22.0155 5.20775C22.5582 5.83391 22.5734 6.70925 22.1747 7.36358L21.3341 8.74375C21.2886 8.8185 21.2712 8.94416 21.3362 9.085C21.4576 9.34283 21.567 9.60608 21.6645 9.87366C21.7165 10.0199 21.8183 10.0957 21.9028 10.1174L23.4736 10.4987C24.2179 10.6797 24.8267 11.3102 24.8852 12.1367C24.9264 12.712 24.9264 13.2883 24.8852 13.8636C24.8267 14.6902 24.2179 15.3207 23.4736 15.5016L21.9028 15.8829C21.8183 15.9035 21.7176 15.9804 21.6634 16.1267C21.567 16.3953 21.4576 16.6586 21.3362 16.9153C21.2701 17.0562 21.2886 17.1818 21.3341 17.2566L22.1747 18.6378C22.5734 19.2911 22.5571 20.1664 22.0155 20.7937C21.6374 21.2292 21.229 21.6387 20.7924 22.0157C20.1662 22.5584 19.2909 22.5736 18.6366 22.1749L17.2564 21.3342C17.1816 21.2887 17.056 21.2714 16.9162 21.3364C16.6581 21.4579 16.3946 21.5674 16.1265 21.6647C15.9802 21.7167 15.9044 21.8185 15.8827 21.903L15.5014 23.4738C15.3205 24.2181 14.69 24.8269 13.8634 24.8854C13.2881 24.9266 12.7118 24.9266 12.1366 24.8854C11.31 24.8269 10.6795 24.2181 10.4986 23.4738L10.1172 21.903C10.0966 21.8185 10.0197 21.7177 9.87347 21.6636C9.60545 21.5673 9.34226 21.4581 9.08481 21.3364C8.94397 21.2703 8.81831 21.2887 8.74356 21.3342L7.36231 22.1749C6.70906 22.5736 5.83372 22.5573 5.20647 22.0157C4.77097 21.6376 4.36147 21.2292 3.98447 20.7926C3.44172 20.1664 3.42656 19.2911 3.82522 18.6367L4.66589 17.2566C4.71139 17.1818 4.72872 17.0562 4.66372 16.9164C4.54228 16.6583 4.43275 16.3948 4.33547 16.1267C4.28347 15.9804 4.18164 15.9046 4.09714 15.8829L2.52631 15.5016C1.78206 15.3207 1.17322 14.6902 1.11364 13.8636C1.07247 13.2887 1.07247 12.7116 1.11364 12.1367C1.17322 11.3102 1.78206 10.6797 2.52631 10.4987L4.09714 10.1174C4.18164 10.0968 4.28239 10.0199 4.33656 9.87366C4.43297 9.605 4.54239 9.34175 4.66372 9.085C4.72981 8.94416 4.71139 8.8185 4.66589 8.74375L3.82522 7.3625C3.42656 6.70925 3.44281 5.83391 3.98447 5.20666C4.36256 4.77116 4.77097 4.36166 5.20756 3.98466C5.83372 3.44191 6.70906 3.42675 7.36339 3.82541L8.74356 4.66608C8.81831 4.71158 8.94397 4.72891 9.08481 4.66391C9.34264 4.54258 9.60589 4.43316 9.87347 4.33566C10.0197 4.28366 10.0956 4.18183 10.1172 4.09733L10.4986 2.5265C10.6795 1.78225 11.31 1.17341 12.1366 1.11383C12.4215 1.09433 12.7096 1.0835 13 1.0835ZM12.2525 2.73558C12.1929 2.73991 12.1062 2.78975 12.0781 2.91L11.6956 4.48083C11.6146 4.79831 11.4563 5.0908 11.2348 5.33219C11.0132 5.57359 10.7354 5.75638 10.426 5.86425C10.2053 5.94426 9.98844 6.03427 9.77597 6.134C9.48061 6.27687 9.15444 6.34432 8.82663 6.33033C8.49883 6.31634 8.17959 6.22134 7.89747 6.05383L6.51731 5.21316C6.41114 5.14816 6.31581 5.17416 6.27031 5.21316C5.89338 5.54025 5.54006 5.89358 5.21297 6.2705C5.17397 6.316 5.14797 6.41241 5.21297 6.5175L6.05364 7.89766C6.39381 8.47075 6.42414 9.176 6.13381 9.77616C6.03408 9.98863 5.94407 10.2055 5.86406 10.4262C5.75632 10.7359 5.57346 11.0141 5.33184 11.2359C5.09023 11.4577 4.79739 11.6161 4.47956 11.6969L2.90872 12.0772C2.78956 12.1064 2.73972 12.1931 2.73539 12.2527C2.69964 12.7504 2.69964 13.25 2.73539 13.7477C2.73972 13.8072 2.78956 13.8939 2.90981 13.9221L4.48064 14.3045C4.79812 14.3855 5.09061 14.5438 5.332 14.7654C5.5734 14.9869 5.75619 15.2648 5.86406 15.5742C5.94422 15.7952 6.03414 16.0118 6.13381 16.2242C6.42414 16.8232 6.39381 17.5285 6.05364 18.1016L5.21297 19.4828C5.14797 19.589 5.17397 19.6843 5.21297 19.7298C5.53906 20.1068 5.89331 20.4611 6.27031 20.7872C6.31581 20.8262 6.41222 20.8522 6.51731 20.7872L7.89747 19.9465C8.1794 19.7785 8.49861 19.6832 8.82648 19.669C9.15434 19.6548 9.48059 19.7223 9.77597 19.8652C9.98831 19.966 10.205 20.0559 10.426 20.1361C10.7357 20.2438 11.0139 20.4267 11.2357 20.6683C11.4575 20.9099 11.6159 21.2027 11.6967 21.5206L12.077 23.0914C12.1062 23.2106 12.1929 23.2604 12.2525 23.2647C12.7502 23.3005 13.2498 23.3005 13.7475 23.2647C13.8071 23.2604 13.8937 23.2106 13.9219 23.0903L14.3043 21.5195C14.3853 21.2019 14.5436 20.9093 14.7652 20.6677C14.9867 20.4261 15.2646 20.2431 15.574 20.135C15.7948 20.0558 16.0117 19.9662 16.224 19.8663C16.5191 19.7235 16.8451 19.656 17.1728 19.67C17.5004 19.684 17.8195 19.779 18.1014 19.9465L19.4826 20.7872C19.5888 20.8522 19.6841 20.8262 19.7296 20.7872C20.1066 20.4611 20.4609 20.1068 20.787 19.7298C20.826 19.6843 20.852 19.5879 20.787 19.4828L19.9463 18.1016C19.7789 17.8196 19.6839 17.5007 19.6697 17.1731C19.6555 16.8455 19.7226 16.5195 19.8651 16.2242C19.9658 16.0118 20.0557 15.7952 20.1359 15.5742C20.2436 15.2644 20.4265 14.9862 20.6681 14.7644C20.9097 14.5427 21.2026 14.3843 21.5204 14.3034L23.0912 13.9232C23.2104 13.8939 23.2602 13.8072 23.2646 13.7477C23.3003 13.25 23.3003 12.7504 23.2646 12.2527C23.2602 12.1931 23.2104 12.1064 23.0901 12.0782L21.5193 11.6958C20.8411 11.5312 20.3493 11.0187 20.1348 10.4262C20.056 10.2052 19.9663 9.98827 19.8661 9.77616C19.7233 9.4808 19.6558 9.15463 19.6698 8.82682C19.6838 8.49902 19.7788 8.17978 19.9463 7.89766L20.787 6.5175C20.852 6.41133 20.826 6.316 20.787 6.2705C20.4599 5.89358 20.1066 5.54025 19.7296 5.21316C19.6841 5.17416 19.5877 5.14816 19.4826 5.21316L18.1014 6.05383C17.8195 6.22134 17.5004 6.31634 17.1728 6.33033C16.8451 6.34432 16.5191 6.27687 16.224 6.134C16.0117 6.0339 15.7948 5.94388 15.574 5.86425C15.2644 5.75617 14.9864 5.5732 14.7647 5.33164C14.5429 5.09008 14.3844 4.79742 14.3032 4.47975L13.923 2.90891C13.8937 2.78975 13.8071 2.73991 13.7475 2.73558C13.2498 2.69983 12.7502 2.69983 12.2525 2.73558Z" fill="white"/>
</g>
</svg>
