<svg width="51" height="44" viewBox="0 0 51 44" fill="none" xmlns="http://www.w3.org/2000/svg">
<path id="KU" d="M21.1346 14.3497C20.8093 16.4096 21.1346 22.9674 21.1346 22.9674C21.1346 22.9674 19.831 23.2101 18.9911 23.1726C17.4159 23.1022 15.1328 21.9415 15.1328 21.9415L9.98843 18.811C9.98843 18.811 9.91842 20.0969 9.98843 20.9156C10.145 22.7464 11.2745 25.4296 11.2745 25.4296C11.2745 25.4296 9.71057 24.9166 8.70234 24.6089C6.377 23.8992 2.70056 22.9674 2.70056 22.9674L5.27275 26.2504L2 27.3408C2 27.3408 3.7863 27.3601 6.13015 29.123L12.1319 33.637C18.1337 38.1511 26.9526 39.0744 26.9526 39.0744L25.4216 41.0237C25.4216 41.0237 30.5357 39.0744 30.7228 40.2029C30.9099 41.3315 29.0707 42.5245 29.4367 42.9348C29.8027 43.3452 31.7779 41.7012 33.0536 41.2447C35.5714 40.3436 37.25 41.2447 38.2825 42.2548C38.5274 42.4944 39.1452 42.2514 39.1452 42.2514C39.1452 42.2514 39.3151 41.181 38.2825 40.3436C37.25 39.5063 33.7551 39.3822 33.9956 38.9718C33.9956 38.9718 37.6094 37.5899 39.5686 36.0992C41.5278 34.6086 43.7651 32.5499 44.2843 29.9437C44.8036 27.3375 43.7873 23.3738 43.8556 22.557C43.9239 21.7403 44.2843 20.5052 44.2843 20.5052L49 14.76L48.5713 14.3497L43.4269 10.246L42.9982 9.42522C42.9982 9.42522 42.4926 8.10335 41.984 7.37337C41.4761 6.64446 40.426 5.73189 40.426 5.73189L41.2834 4.09041L35.7522 4.91115V3C35.7522 3 33.8168 5.40805 32.0507 6.00156C30.2846 6.59507 29.8011 6.73952 28.4225 7.37337C26.9239 8.06233 26.0062 8.37085 24.721 9.42522C22.8979 10.921 21.4599 12.2897 21.1346 14.3497Z" stroke="#404040" stroke-width="1.5"/>
</svg>
