<svg width="41" height="36" viewBox="0 0 41 36" fill="none" xmlns="http://www.w3.org/2000/svg">
<path d="M0.558594 8.19141C0.558594 7.85286 0.571615 7.31901 0.597656 6.58984C0.636719 5.84766 0.695312 5.06641 0.773438 4.24609C0.864583 3.41276 0.981771 2.6901 1.125 2.07812C1.24219 1.60938 1.45052 1.29036 1.75 1.12109C2.0625 0.951823 2.39453 0.91276 2.74609 1.00391C3.11068 1.09505 3.42969 1.29688 3.70312 1.60938C4.79688 2.85938 6.03385 3.77734 7.41406 4.36328C8.79427 4.9362 10.3372 5.22266 12.043 5.22266C13.8789 5.22266 15.6107 5.07292 17.2383 4.77344C18.8789 4.47396 20.474 4.32422 22.0234 4.32422C24.237 4.32422 26.2682 4.65625 28.1172 5.32031C29.9661 5.97135 31.5677 6.89583 32.9219 8.09375C34.276 9.29167 35.3242 10.7109 36.0664 12.3516C36.8086 13.9922 37.1797 15.7826 37.1797 17.7227C37.1797 19.7539 36.8086 21.6159 36.0664 23.3086C35.3242 25.0013 34.276 26.4661 32.9219 27.7031C31.5677 28.9271 29.9596 29.8776 28.0977 30.5547C26.2357 31.2188 24.1849 31.5508 21.9453 31.5508C18.7031 31.5508 15.7669 31.0039 13.1367 29.9102C10.5065 28.8164 8.25391 27.2474 6.37891 25.2031C4.50391 23.1458 3.0651 20.6849 2.0625 17.8203C1.0599 14.9427 0.558594 11.7331 0.558594 8.19141ZM1.96484 8.19141C1.96484 11.5378 2.42708 14.5586 3.35156 17.2539C4.28906 19.9492 5.63021 22.2604 7.375 24.1875C9.13281 26.1146 11.2357 27.5924 13.6836 28.6211C16.1445 29.6497 18.8984 30.1641 21.9453 30.1641C24.6667 30.1641 27.0625 29.6367 29.1328 28.582C31.2161 27.5273 32.8438 26.069 34.0156 24.207C35.2005 22.332 35.793 20.1706 35.793 17.7227C35.793 15.3789 35.2005 13.3086 34.0156 11.5117C32.8307 9.70182 31.2031 8.28906 29.1328 7.27344C27.0625 6.24479 24.6927 5.73047 22.0234 5.73047C21.3464 5.73047 20.6432 5.76953 19.9141 5.84766C19.1979 5.92578 18.4557 6.01693 17.6875 6.12109C16.8281 6.23828 15.9297 6.35547 14.9922 6.47266C14.0547 6.57682 13.0716 6.62891 12.043 6.62891C10.5716 6.62891 9.01562 6.35547 7.375 5.80859C5.73438 5.26172 4.27604 4.32422 3 2.99609C2.63542 2.61849 2.41406 2.66406 2.33594 3.13281C2.21875 3.82292 2.1276 4.57812 2.0625 5.39844C1.9974 6.21875 1.96484 7.14974 1.96484 8.19141ZM11.6133 12.6641C11.5612 12.5078 11.5677 12.3841 11.6328 12.293C11.7109 12.2018 11.8086 12.1628 11.9258 12.1758C12.056 12.1758 12.1732 12.2474 12.2773 12.3906C12.9935 13.276 13.8008 14.0117 14.6992 14.5977C15.5977 15.1706 16.6589 15.6589 17.8828 16.0625C19.1198 16.4661 20.5846 16.8568 22.2773 17.2344C25.1419 17.8203 27.6419 18.6016 29.7773 19.5781C31.9128 20.5547 33.7487 21.8372 35.2852 23.4258C35.7669 23.9206 36.3008 24.5586 36.8867 25.3398C37.4727 26.1081 38.0326 26.9414 38.5664 27.8398C39.1133 28.7383 39.556 29.6302 39.8945 30.5156C40.2461 31.388 40.4219 32.1823 40.4219 32.8984C40.4219 33.6927 40.207 34.3568 39.7773 34.8906C39.3477 35.4245 38.7943 35.6914 38.1172 35.6914C37.8047 35.6914 37.5052 35.6003 37.2188 35.418C36.9453 35.2487 36.737 34.9427 36.5938 34.5C36.1771 33.1719 35.8125 32.0195 35.5 31.043C35.1875 30.0534 34.849 29.168 34.4844 28.3867C34.1328 27.5924 33.6966 26.8438 33.1758 26.1406C32.4206 25.0729 31.6523 24.1615 30.8711 23.4062C30.1029 22.638 29.2695 21.987 28.3711 21.4531C27.4857 20.9062 26.5091 20.4375 25.4414 20.0469C24.3737 19.6432 23.1758 19.2721 21.8477 18.9336C19.6992 18.3867 17.9349 17.8203 16.5547 17.2344C15.1745 16.6354 14.0938 15.9714 13.3125 15.2422C12.5312 14.513 11.9648 13.6536 11.6133 12.6641Z" fill="#404040"/>
</svg>
