<svg width="31" height="46" viewBox="0 0 31 46" fill="none" xmlns="http://www.w3.org/2000/svg">
<path d="M9.81641 45.1875C6.75651 45.1875 4.48438 44.4258 3 42.9023C1.52865 41.3919 0.80599 39.0872 0.832031 35.9883C0.871094 32.2513 0.910156 28.9961 0.949219 26.2227C0.988281 23.4492 1.04688 21.0469 1.125 19.0156C1.26823 16.112 1.59375 13.6966 2.10156 11.7695C2.60938 9.84245 3.39714 8.32552 4.46484 7.21875C5.54557 6.09896 6.98438 5.30469 8.78125 4.83594C10.5781 4.36719 12.8177 4.13281 15.5 4.13281C18.1953 4.13281 20.4349 4.36719 22.2188 4.83594C24.0156 5.30469 25.4544 6.09896 26.5352 7.21875C27.6159 8.32552 28.4102 9.84245 28.918 11.7695C29.4258 13.6966 29.7448 16.112 29.875 19.0156C29.9661 21.0469 30.0247 23.4492 30.0508 26.2227C30.0898 28.9961 30.1289 32.2513 30.168 35.9883C30.194 39.0872 29.4648 41.3919 27.9805 42.9023C26.5091 44.4258 24.2435 45.1875 21.1836 45.1875H9.81641ZM9.81641 43.7031H21.1836C23.8138 43.7031 25.7279 43.0911 26.9258 41.8672C28.1237 40.6432 28.7096 38.6901 28.6836 36.0078C28.6445 32.2578 28.6055 29.0091 28.5664 26.2617C28.5404 23.5013 28.4818 21.112 28.3906 19.0938C28.2734 16.3854 27.9935 14.1589 27.5508 12.4141C27.1081 10.6562 26.4115 9.28906 25.4609 8.3125C24.5234 7.32292 23.2474 6.63281 21.6328 6.24219C20.0182 5.83854 17.974 5.63672 15.5 5.63672C13.026 5.63672 10.9818 5.83854 9.36719 6.24219C7.7526 6.63281 6.47005 7.32292 5.51953 8.3125C4.58203 9.28906 3.89193 10.6562 3.44922 12.4141C3.00651 14.1589 2.72656 16.3854 2.60938 19.0938C2.51823 21.112 2.45312 23.5013 2.41406 26.2617C2.38802 29.0091 2.35547 32.2578 2.31641 36.0078C2.29036 38.6901 2.8763 40.6432 4.07422 41.8672C5.27214 43.0911 7.1862 43.7031 9.81641 43.7031ZM15.5195 0.578125C16.4049 0.578125 17.2057 0.773438 17.9219 1.16406C18.638 1.54167 19.2044 2.0625 19.6211 2.72656C20.0508 3.39062 20.2656 4.15885 20.2656 5.03125H18.918C18.918 4.11979 18.5859 3.3776 17.9219 2.80469C17.2708 2.21875 16.4701 1.92578 15.5195 1.92578C14.569 1.92578 13.7617 2.21875 13.0977 2.80469C12.4466 3.3776 12.1211 4.11979 12.1211 5.03125H10.7539C10.7539 4.15885 10.9622 3.39062 11.3789 2.72656C11.8086 2.0625 12.3815 1.54167 13.0977 1.16406C13.8268 0.773438 14.6341 0.578125 15.5195 0.578125ZM9.73828 37.9414C8.97005 37.9414 8.34505 37.707 7.86328 37.2383C7.39453 36.7565 7.16016 36.125 7.16016 35.3438V26.6523C7.16016 25.8711 7.39453 25.2461 7.86328 24.7773C8.34505 24.2956 8.97005 24.0547 9.73828 24.0547H21.2617C22.0299 24.0547 22.6484 24.2956 23.1172 24.7773C23.599 25.2461 23.8398 25.8711 23.8398 26.6523V35.3438C23.8398 36.125 23.599 36.7565 23.1172 37.2383C22.6484 37.707 22.0299 37.9414 21.2617 37.9414H9.73828ZM9.79688 36.5742H21.2031C21.5807 36.5742 21.8867 36.4635 22.1211 36.2422C22.3685 36.0078 22.4922 35.7018 22.4922 35.3242V26.6719C22.4922 26.2943 22.3685 25.9948 22.1211 25.7734C21.8867 25.5391 21.5807 25.4219 21.2031 25.4219H9.79688C9.41927 25.4219 9.11328 25.5391 8.87891 25.7734C8.64453 25.9948 8.52734 26.2943 8.52734 26.6719V35.3242C8.52734 35.7018 8.64453 36.0078 8.87891 36.2422C9.11328 36.4635 9.41927 36.5742 9.79688 36.5742ZM8 30.3242V29.0352H23V30.3242H8Z" fill="#404040"/>
</svg>
