<svg width="26" height="27" viewBox="0 0 26 27" fill="none" xmlns="http://www.w3.org/2000/svg">
<path d="M12.9883 19.5156C12.1758 19.5156 11.4062 19.3594 10.6797 19.0469C9.96094 18.7344 9.32422 18.3047 8.76953 17.7578C8.22266 17.2031 7.79297 16.5664 7.48047 15.8477C7.17578 15.1289 7.02344 14.3594 7.02344 13.5391C7.02344 12.7188 7.17578 11.9492 7.48047 11.2305C7.79297 10.5039 8.22266 9.86719 8.76953 9.32031C9.32422 8.76562 9.96094 8.33203 10.6797 8.01953C11.4062 7.70703 12.1758 7.55078 12.9883 7.55078C13.8008 7.55078 14.5664 7.70703 15.2852 8.01953C16.0117 8.33203 16.6484 8.76562 17.1953 9.32031C17.75 9.86719 18.1797 10.5039 18.4844 11.2305C18.7969 11.9492 18.9531 12.7188 18.9531 13.5391C18.9531 14.3594 18.7969 15.1289 18.4844 15.8477C18.1797 16.5664 17.75 17.2031 17.1953 17.7578C16.6484 18.3047 16.0117 18.7344 15.2852 19.0469C14.5664 19.3594 13.8008 19.5156 12.9883 19.5156ZM12.9883 17.7227C13.7539 17.7227 14.4531 17.5352 15.0859 17.1602C15.7188 16.7773 16.2227 16.2695 16.5977 15.6367C16.9805 15.0039 17.1719 14.3047 17.1719 13.5391C17.1719 12.7734 16.9805 12.0742 16.5977 11.4414C16.2227 10.8086 15.7188 10.3008 15.0859 9.91797C14.4531 9.53516 13.7539 9.34375 12.9883 9.34375C12.2227 9.34375 11.5234 9.53516 10.8906 9.91797C10.2578 10.3008 9.75 10.8086 9.36719 11.4414C8.99219 12.0742 8.80469 12.7734 8.80469 13.5391C8.80469 14.3047 8.99219 15.0039 9.36719 15.6367C9.75 16.2695 10.2578 16.7773 10.8906 17.1602C11.5234 17.5352 12.2227 17.7227 12.9883 17.7227ZM13 5.38281C12.7188 5.38281 12.4766 5.28516 12.2734 5.08984C12.0781 4.88672 11.9805 4.64453 11.9805 4.36328V1.84375C11.9805 1.5625 12.0781 1.32422 12.2734 1.12891C12.4766 0.925781 12.7188 0.824219 13 0.824219C13.2734 0.824219 13.5078 0.925781 13.7031 1.12891C13.9062 1.32422 14.0078 1.5625 14.0078 1.84375V4.36328C14.0078 4.64453 13.9062 4.88672 13.7031 5.08984C13.5078 5.28516 13.2734 5.38281 13 5.38281ZM18.7422 7.78516C18.5469 7.58984 18.4492 7.35156 18.4492 7.07031C18.4492 6.78906 18.5469 6.55078 18.7422 6.35547L20.5469 4.55078C20.7422 4.35547 20.9805 4.25781 21.2617 4.25781C21.543 4.25781 21.7812 4.35547 21.9766 4.55078C22.1719 4.74609 22.2695 4.98828 22.2695 5.27734C22.2695 5.55859 22.1719 5.79687 21.9766 5.99219L20.1836 7.78516C19.9805 7.98828 19.7383 8.08984 19.457 8.08984C19.1758 8.08203 18.9375 7.98047 18.7422 7.78516ZM21.1211 13.5391C21.1211 13.2578 21.2188 13.0195 21.4141 12.8242C21.6172 12.6211 21.8594 12.5195 22.1406 12.5195H24.6602C24.9336 12.5195 25.168 12.6211 25.3633 12.8242C25.5664 13.0195 25.668 13.2578 25.668 13.5391C25.668 13.8125 25.5664 14.0508 25.3633 14.2539C25.168 14.4492 24.9336 14.5469 24.6602 14.5469H22.1406C21.8594 14.5469 21.6172 14.4492 21.4141 14.2539C21.2188 14.0508 21.1211 13.8125 21.1211 13.5391ZM18.7422 19.293C18.9375 19.1055 19.1758 19.0117 19.457 19.0117C19.7383 19.0117 19.9766 19.1055 20.1719 19.293L21.9766 21.0977C22.1719 21.293 22.2695 21.5312 22.2695 21.8125C22.2695 22.0859 22.1719 22.3242 21.9766 22.5273C21.7812 22.7148 21.543 22.8086 21.2617 22.8086C20.9805 22.8164 20.7422 22.7266 20.5469 22.5391L18.7422 20.7227C18.5469 20.5273 18.4492 20.293 18.4492 20.0195C18.4492 19.7383 18.5469 19.4961 18.7422 19.293ZM13 21.6953C13.2734 21.6953 13.5078 21.7969 13.7031 22C13.9062 22.1953 14.0078 22.4297 14.0078 22.7031V25.2344C14.0078 25.5078 13.9062 25.7422 13.7031 25.9375C13.5078 26.1406 13.2734 26.2422 13 26.2422C12.7188 26.2422 12.4766 26.1406 12.2734 25.9375C12.0781 25.7422 11.9805 25.5078 11.9805 25.2344V22.7031C11.9805 22.4297 12.0781 22.1953 12.2734 22C12.4766 21.7969 12.7188 21.6953 13 21.6953ZM7.24609 19.293C7.43359 19.4961 7.52734 19.7383 7.52734 20.0195C7.52734 20.293 7.42969 20.5273 7.23438 20.7227L5.44141 22.5273C5.24609 22.7148 5.00391 22.8047 4.71484 22.7969C4.43359 22.7969 4.19531 22.7031 4 22.5156C3.8125 22.3125 3.71875 22.0742 3.71875 21.8008C3.71875 21.5195 3.81641 21.2812 4.01172 21.0859L5.80469 19.293C6 19.1055 6.23828 19.0117 6.51953 19.0117C6.80859 19.0117 7.05078 19.1055 7.24609 19.293ZM4.86719 13.5391C4.86719 13.8125 4.76562 14.0508 4.5625 14.2539C4.36719 14.4492 4.12891 14.5469 3.84766 14.5469H1.32812C1.05469 14.5469 0.816406 14.4492 0.613281 14.2539C0.417969 14.0508 0.320312 13.8125 0.320312 13.5391C0.320312 13.2578 0.417969 13.0195 0.613281 12.8242C0.816406 12.6211 1.05469 12.5195 1.32812 12.5195H3.84766C4.12891 12.5195 4.36719 12.6211 4.5625 12.8242C4.76562 13.0195 4.86719 13.2578 4.86719 13.5391ZM7.23438 7.78516C7.03906 7.98047 6.80078 8.07812 6.51953 8.07812C6.23828 8.07812 6 7.98047 5.80469 7.78516L4.01172 5.98047C3.82422 5.79297 3.73047 5.55859 3.73047 5.27734C3.73047 4.98828 3.82812 4.74609 4.02344 4.55078C4.21875 4.35547 4.45703 4.26172 4.73828 4.26953C5.01953 4.26953 5.25781 4.36328 5.45312 4.55078L7.24609 6.35547C7.43359 6.55078 7.52734 6.79297 7.52734 7.08203C7.52734 7.36328 7.42969 7.59766 7.23438 7.78516Z" fill="white"/>
</svg>
