<svg width="30" height="17" viewBox="0 0 30 17" fill="none" xmlns="http://www.w3.org/2000/svg">
<path d="M2.24414 16.2637C1.80664 16.2637 1.43294 16.0996 1.12305 15.7715C0.822266 15.4434 0.671875 15.0697 0.671875 14.6504C0.671875 14.2129 0.822266 13.8392 1.12305 13.5293C1.43294 13.2103 1.80664 13.0508 2.24414 13.0508H27.7559C28.1934 13.0508 28.5625 13.2103 28.8633 13.5293C29.1732 13.8392 29.3281 14.2129 29.3281 14.6504C29.3281 15.0788 29.1732 15.457 28.8633 15.7852C28.5625 16.1042 28.1934 16.2637 27.7559 16.2637H2.24414ZM2.24414 9.74219C1.80664 9.74219 1.43294 9.58268 1.12305 9.26367C0.822266 8.93555 0.671875 8.56185 0.671875 8.14258C0.671875 7.70508 0.822266 7.32682 1.12305 7.00781C1.43294 6.67969 1.80664 6.51562 2.24414 6.51562H27.7559C28.1934 6.51562 28.5625 6.67513 28.8633 6.99414C29.1732 7.31315 29.3281 7.69596 29.3281 8.14258C29.3281 8.57096 29.1732 8.94466 28.8633 9.26367C28.5625 9.58268 28.1934 9.74219 27.7559 9.74219H2.24414ZM2.24414 3.23438C1.80664 3.23438 1.43294 3.07487 1.12305 2.75586C0.822266 2.42773 0.671875 2.05404 0.671875 1.63477C0.671875 1.19727 0.822266 0.81901 1.12305 0.5C1.43294 0.18099 1.80664 0.0214844 2.24414 0.0214844H27.7559C28.1934 0.0214844 28.5625 0.18099 28.8633 0.5C29.1732 0.809896 29.3281 1.18815 29.3281 1.63477C29.3281 2.06315 29.1732 2.43685 28.8633 2.75586C28.5625 3.07487 28.1934 3.23438 27.7559 3.23438H2.24414Z" fill="white"/>
</svg>
