<svg width="53" height="54" viewBox="0 0 53 54" fill="none" xmlns="http://www.w3.org/2000/svg">
<path d="M26.4731 53.1616C22.8566 53.1616 19.4549 52.4723 16.2681 51.0938C13.0991 49.7331 10.3062 47.8442 7.88916 45.4272C5.47217 43.0103 3.57438 40.2173 2.1958 37.0483C0.835124 33.8615 0.154785 30.4598 0.154785 26.8433C0.154785 23.2267 0.835124 19.834 2.1958 16.665C3.57438 13.4782 5.47217 10.6763 7.88916 8.25928C10.3062 5.84229 13.0991 3.95345 16.2681 2.59277C19.4549 1.21419 22.8566 0.524902 26.4731 0.524902C30.0897 0.524902 33.4824 1.21419 36.6514 2.59277C39.8382 3.95345 42.6401 5.84229 45.0571 8.25928C47.4741 10.6763 49.3719 13.4782 50.7505 16.665C52.1291 19.834 52.8184 23.2267 52.8184 26.8433C52.8184 30.4598 52.1291 33.8615 50.7505 37.0483C49.3719 40.2173 47.4741 43.0103 45.0571 45.4272C42.6401 47.8442 39.8472 49.7331 36.6782 51.0938C33.5093 52.4723 30.1076 53.1616 26.4731 53.1616ZM26.4731 51.1206C29.839 51.1206 32.9901 50.494 35.9263 49.2407C38.8625 47.9875 41.4406 46.2508 43.6606 44.0308C45.8986 41.7928 47.6442 39.2057 48.8975 36.2695C50.1507 33.3333 50.7773 30.1912 50.7773 26.8433C50.7773 23.4953 50.1507 20.3532 48.8975 17.417C47.6442 14.4808 45.8986 11.8937 43.6606 9.65576C41.4406 7.41781 38.8625 5.6722 35.9263 4.41895C32.9901 3.16569 29.839 2.53906 26.4731 2.53906C23.1252 2.53906 19.9831 3.16569 17.0469 4.41895C14.1107 5.6722 11.5236 7.41781 9.28564 9.65576C7.06559 11.8937 5.32894 14.4808 4.07568 17.417C2.82243 20.3532 2.1958 23.4953 2.1958 26.8433C2.1958 30.1912 2.82243 33.3333 4.07568 36.2695C5.32894 39.2057 7.06559 41.7928 9.28564 44.0308C11.5236 46.2508 14.1107 47.9875 17.0469 49.2407C19.9831 50.494 23.1252 51.1206 26.4731 51.1206ZM21.9883 43.4131C17.2438 43.4131 14.8895 41.005 14.9253 36.189C14.9611 33.2349 14.988 30.6657 15.0059 28.4814C15.0417 26.2972 15.0954 24.4084 15.167 22.8149C15.3102 19.7534 15.722 17.3812 16.4023 15.6982C17.1006 13.9974 18.2464 12.8068 19.8398 12.1265C21.4333 11.4461 23.6444 11.106 26.4731 11.106C29.284 11.106 31.4862 11.4461 33.0796 12.1265C34.673 12.8068 35.8188 13.9974 36.5171 15.6982C37.2153 17.3812 37.6271 19.7534 37.7524 22.8149C37.8241 24.4084 37.8688 26.2972 37.8867 28.4814C37.9225 30.6657 37.9583 33.2349 37.9941 36.189C38.0299 41.005 35.6756 43.4131 30.9312 43.4131H21.9883ZM21.9346 37.6929H31.0117C31.6025 37.6929 32.077 37.5138 32.4351 37.1558C32.811 36.7798 32.999 36.2785 32.999 35.6519V28.8306C32.999 28.2218 32.811 27.7295 32.4351 27.3535C32.077 26.9775 31.6025 26.7896 31.0117 26.7896H21.9346C21.3258 26.7896 20.8335 26.9775 20.4575 27.3535C20.0994 27.7295 19.9204 28.2218 19.9204 28.8306V35.6519C19.9204 36.2785 20.0994 36.7798 20.4575 37.1558C20.8335 37.5138 21.3258 37.6929 21.9346 37.6929ZM19.9204 32.2144V30.7373H32.999V32.2144H19.9204ZM26.4731 8.09814C27.5832 8.09814 28.5052 8.47412 29.2393 9.22607C29.9912 9.96012 30.3672 10.8911 30.3672 12.019H28.917C28.917 11.285 28.6932 10.7031 28.2456 10.2734C27.798 9.82585 27.2072 9.60205 26.4731 9.60205C25.7212 9.60205 25.1214 9.82585 24.6738 10.2734C24.2441 10.7031 24.0293 11.285 24.0293 12.019H22.5254C22.5254 10.8911 22.8924 9.96012 23.6265 9.22607C24.3784 8.47412 25.3273 8.09814 26.4731 8.09814Z" fill="#404040"/>
</svg>
