<svg width="54" height="54" viewBox="0 0 54 54" fill="none" xmlns="http://www.w3.org/2000/svg">
<path d="M26.9731 53.1616C23.3566 53.1616 19.9549 52.4723 16.7681 51.0938C13.5991 49.7331 10.8062 47.8442 8.38916 45.4272C5.97217 43.0103 4.07438 40.2173 2.6958 37.0483C1.33512 33.8615 0.654785 30.4598 0.654785 26.8433C0.654785 23.2267 1.33512 19.834 2.6958 16.665C4.07438 13.4782 5.97217 10.6763 8.38916 8.25928C10.8062 5.84229 13.5991 3.95345 16.7681 2.59277C19.9549 1.21419 23.3566 0.524902 26.9731 0.524902C30.5897 0.524902 33.9824 1.21419 37.1514 2.59277C40.3382 3.95345 43.1401 5.84229 45.5571 8.25928C47.9741 10.6763 49.8719 13.4782 51.2505 16.665C52.6291 19.834 53.3184 23.2267 53.3184 26.8433C53.3184 30.4598 52.6291 33.8615 51.2505 37.0483C49.8719 40.2173 47.9741 43.0103 45.5571 45.4272C43.1401 47.8442 40.3472 49.7331 37.1782 51.0938C34.0093 52.4723 30.6076 53.1616 26.9731 53.1616ZM26.9731 51.1206C30.339 51.1206 33.4901 50.494 36.4263 49.2407C39.3625 47.9875 41.9406 46.2508 44.1606 44.0308C46.3986 41.7928 48.1442 39.2057 49.3975 36.2695C50.6507 33.3333 51.2773 30.1912 51.2773 26.8433C51.2773 23.4953 50.6507 20.3532 49.3975 17.417C48.1442 14.4808 46.3986 11.8937 44.1606 9.65576C41.9406 7.41781 39.3625 5.6722 36.4263 4.41895C33.4901 3.16569 30.339 2.53906 26.9731 2.53906C23.6252 2.53906 20.4831 3.16569 17.5469 4.41895C14.6107 5.6722 12.0236 7.41781 9.78564 9.65576C7.56559 11.8937 5.82894 14.4808 4.57568 17.417C3.32243 20.3532 2.6958 23.4953 2.6958 26.8433C2.6958 30.1912 3.32243 33.3333 4.57568 36.2695C5.82894 39.2057 7.56559 41.7928 9.78564 44.0308C12.0236 46.2508 14.6107 47.9875 17.5469 49.2407C20.4831 50.494 23.6252 51.1206 26.9731 51.1206ZM14.1899 15.9937C14.2257 15.743 14.3421 15.5998 14.5391 15.564C14.7539 15.5103 14.9508 15.5908 15.1299 15.8057C15.9176 16.8083 16.8844 17.4707 18.0303 17.793C19.1761 18.1152 20.3936 18.2764 21.6826 18.2764C22.5778 18.2764 23.5088 18.2316 24.4756 18.1421C25.4603 18.0526 26.4181 18.0078 27.3491 18.0078C30.3569 18.0078 32.7829 18.7061 34.627 20.1025C36.471 21.499 37.3931 23.6833 37.3931 26.6553C37.3931 26.9775 37.3752 27.2819 37.3394 27.5684C37.3215 27.8548 37.3035 28.1144 37.2856 28.3472C37.2498 28.5083 37.1514 28.6157 36.9902 28.6694C36.847 28.7231 36.7127 28.6784 36.5874 28.5352C35.4416 27.5505 34.3226 26.8433 33.2305 26.4136C32.1383 25.966 31.0731 25.6706 30.0347 25.5273C28.9963 25.3662 27.9937 25.2319 27.0269 25.1245C26.0601 24.9992 25.1291 24.7754 24.2339 24.4531C23.3387 24.113 22.4614 23.549 21.6021 22.7612C21.423 22.5643 21.244 22.5285 21.0649 22.6538C20.8859 22.7791 20.8501 22.9403 20.9575 23.1372C21.5125 24.1756 22.2376 24.9455 23.1328 25.4468C24.0459 25.9481 25.0575 26.3151 26.1675 26.5479C27.2775 26.7627 28.4323 26.9865 29.6318 27.2192C30.8493 27.4341 32.0488 27.7743 33.2305 28.2397C34.43 28.7052 35.549 29.4393 36.5874 30.4419C36.9992 30.8358 37.4736 31.3997 38.0107 32.1338C38.5479 32.8499 39.0223 33.6108 39.4341 34.4165C39.8459 35.2043 40.0518 35.9115 40.0518 36.5381C40.0518 37.0752 39.9085 37.5138 39.6221 37.854C39.3356 38.1942 38.9686 38.3643 38.521 38.3643C38.3241 38.3643 38.1271 38.3105 37.9302 38.2031C37.7511 38.0778 37.6169 37.8809 37.5273 37.6123C37.223 36.5739 36.9455 35.7056 36.6948 35.0073C36.4442 34.3091 36.1577 33.6825 35.8354 33.1274C35.5311 32.5724 35.1283 32.0174 34.627 31.4624L35.5132 31.0864C35.1909 31.9279 34.6359 32.6978 33.8481 33.396C33.0783 34.0942 32.1383 34.6493 31.0283 35.061C29.9183 35.4549 28.6919 35.6519 27.3491 35.6519C24.6457 35.6519 22.2824 35.0073 20.2593 33.7183C18.2362 32.4113 16.6606 30.5941 15.5327 28.2666C14.4227 25.9212 13.8677 23.1909 13.8677 20.0757C13.8677 19.5744 13.9035 18.9478 13.9751 18.1958C14.0467 17.4438 14.1183 16.7098 14.1899 15.9937Z" fill="#404040"/>
</svg>
