<svg width="32" height="36" viewBox="0 0 32 36" fill="none" xmlns="http://www.w3.org/2000/svg">
<path d="M0.233398 5.44629C0.233398 4.68262 0.46582 4.07943 0.930664 3.63672C1.39551 3.19401 2.0319 2.97266 2.83984 2.97266H5.74512C5.83366 2.15365 6.14355 1.51725 6.6748 1.06348C7.21712 0.598633 7.93099 0.366211 8.81641 0.366211H22.4961C23.4036 0.366211 24.123 0.598633 24.6543 1.06348C25.1855 1.52832 25.4899 2.16471 25.5674 2.97266H28.4893C29.2861 2.97266 29.917 3.19401 30.3818 3.63672C30.8467 4.07943 31.0791 4.68262 31.0791 5.44629C31.0791 7.61556 30.7526 9.5026 30.0996 11.1074C29.4466 12.7122 28.4671 14.0791 27.1611 15.208C25.8662 16.3258 24.2393 17.25 22.2803 17.9805C21.749 18.722 21.1735 19.375 20.5537 19.9395C19.945 20.4928 19.3473 20.9411 18.7607 21.2842V28.3564H21.2344C22.2526 28.3564 23.0273 28.6331 23.5586 29.1865C24.1009 29.7399 24.3721 30.5036 24.3721 31.4775V34.6982C24.3721 34.986 24.2725 35.2184 24.0732 35.3955C23.8851 35.5726 23.6527 35.6611 23.376 35.6611H7.93652C7.65983 35.6611 7.42188 35.5726 7.22266 35.3955C7.03451 35.2184 6.94043 34.986 6.94043 34.6982V31.4775C6.94043 30.5036 7.20605 29.7399 7.7373 29.1865C8.27962 28.6331 9.0599 28.3564 10.0781 28.3564H12.5518V21.2842C11.9652 20.9411 11.362 20.4928 10.7422 19.9395C10.1335 19.375 9.56901 18.722 9.04883 17.9805C7.07878 17.25 5.44076 16.3258 4.13477 15.208C2.83984 14.0791 1.86589 12.7122 1.21289 11.1074C0.559896 9.5026 0.233398 7.61556 0.233398 5.44629ZM2.07617 5.6123C2.07617 7.98079 2.52441 9.96745 3.4209 11.5723C4.31738 13.166 5.61784 14.4277 7.32227 15.3574C6.83529 14.3613 6.43685 13.2933 6.12695 12.1533C5.82812 11.0133 5.67871 9.8125 5.67871 8.55078V4.89844H2.79004C2.57975 4.89844 2.4082 4.97038 2.27539 5.11426C2.14258 5.24707 2.07617 5.41309 2.07617 5.6123ZM7.62109 9.01562C7.62109 10.1556 7.80371 11.279 8.16895 12.3857C8.54525 13.4925 9.03223 14.5329 9.62988 15.5068C10.2386 16.4808 10.9027 17.3441 11.6221 18.0967C12.3415 18.8493 13.0498 19.4414 13.7471 19.873C14.4554 20.3047 15.0918 20.5205 15.6562 20.5205C16.2207 20.5205 16.8516 20.3047 17.5488 19.873C18.2572 19.4414 18.971 18.8493 19.6904 18.0967C20.4098 17.3441 21.0684 16.4808 21.666 15.5068C22.2747 14.5329 22.7617 13.4925 23.127 12.3857C23.5033 11.279 23.6914 10.1556 23.6914 9.01562V3.4873C23.6914 3.13314 23.5807 2.84538 23.3594 2.62402C23.138 2.40267 22.8503 2.29199 22.4961 2.29199H8.81641C8.46224 2.29199 8.17448 2.40267 7.95312 2.62402C7.73177 2.84538 7.62109 3.13314 7.62109 3.4873V9.01562ZM8.88281 33.7354H22.4297V31.4775C22.4297 31.1123 22.319 30.8245 22.0977 30.6143C21.8874 30.404 21.5996 30.2988 21.2344 30.2988H10.0781C9.71289 30.2988 9.4196 30.404 9.19824 30.6143C8.98796 30.8245 8.88281 31.1123 8.88281 31.4775V33.7354ZM14.4941 28.3564H16.8184V22.2471C16.4089 22.3688 16.0215 22.4297 15.6562 22.4297C15.291 22.4297 14.9036 22.3688 14.4941 22.2471V28.3564ZM23.9902 15.3574C25.6947 14.4277 26.9951 13.166 27.8916 11.5723C28.7881 9.96745 29.2363 7.98079 29.2363 5.6123C29.2363 5.41309 29.1699 5.24707 29.0371 5.11426C28.9043 4.97038 28.7327 4.89844 28.5225 4.89844H25.6338V8.55078C25.6338 9.8125 25.4788 11.0133 25.1689 12.1533C24.8701 13.2933 24.4772 14.3613 23.9902 15.3574Z" fill="#404040"/>
</svg>
