<svg width="33" height="37" viewBox="0 0 33 37" fill="none" xmlns="http://www.w3.org/2000/svg">
<path d="M0.169922 28.4688C0.169922 27.8711 0.333984 27.3027 0.662109 26.7637C0.990234 26.2129 1.39453 25.6797 1.875 25.1641C2.36719 24.6367 2.85938 24.1152 3.35156 23.5996C3.82031 23.084 4.17188 22.416 4.40625 21.5957C4.64062 20.7637 4.81055 19.873 4.91602 18.9238C5.02148 17.9746 5.12695 17.0312 5.23242 16.0938C5.31445 14.1016 5.58398 12.3262 6.04102 10.7676C6.50977 9.20898 7.20703 7.90234 8.13281 6.84766C9.05859 5.79297 10.2656 5.02539 11.7539 4.54492C12 3.36133 12.5449 2.38281 13.3887 1.60938C14.2441 0.835938 15.2812 0.449219 16.5 0.449219C17.7188 0.449219 18.75 0.835938 19.5938 1.60938C20.4492 2.38281 21 3.36133 21.2461 4.54492C22.7344 5.02539 23.9414 5.79297 24.8672 6.84766C25.793 7.90234 26.4844 9.20898 26.9414 10.7676C27.4102 12.3262 27.6914 14.1016 27.7852 16.0938C27.8789 17.0312 27.9785 17.9746 28.084 18.9238C28.1895 19.873 28.3594 20.7637 28.5938 21.5957C28.8281 22.416 29.1855 23.084 29.666 23.5996C30.1465 24.1152 30.6328 24.6367 31.125 25.1641C31.6172 25.6797 32.0215 26.2129 32.3379 26.7637C32.666 27.3027 32.8301 27.8711 32.8301 28.4688C32.8301 28.9844 32.6484 29.3945 32.2852 29.6992C31.9219 30.0039 31.4238 30.1562 30.791 30.1562H22.4766C22.4414 31.2695 22.1602 32.2773 21.6328 33.1797C21.1172 34.0938 20.4141 34.8203 19.5234 35.3594C18.6445 35.8984 17.6367 36.168 16.5 36.168C15.3633 36.168 14.3496 35.8926 13.459 35.3418C12.5801 34.8027 11.8828 34.082 11.3672 33.1797C10.8516 32.2773 10.5762 31.2695 10.541 30.1562H2.20898C1.57617 30.1562 1.07812 30.0039 0.714844 29.6992C0.351562 29.3945 0.169922 28.9844 0.169922 28.4688ZM2.75391 28.1172H30.2461V27.9238C30.1758 27.6895 30.0117 27.4023 29.7539 27.0625C29.5078 26.7227 29.2148 26.3652 28.875 25.9902C28.5352 25.6152 28.1953 25.2461 27.8555 24.8828C27.4453 24.4492 27.1172 23.9336 26.8711 23.3359C26.625 22.7383 26.4258 22.0703 26.2734 21.332C26.1211 20.5938 25.998 19.8027 25.9043 18.959C25.8105 18.1152 25.7227 17.2305 25.6406 16.3047C25.5234 14.1484 25.2305 12.3965 24.7617 11.0488C24.3047 9.68945 23.6895 8.65234 22.916 7.9375C22.1426 7.22266 21.2461 6.72461 20.2266 6.44336C19.9805 6.38477 19.7812 6.29102 19.6289 6.16211C19.4883 6.0332 19.4062 5.8457 19.3828 5.59961C19.3242 4.69727 19.043 3.94727 18.5391 3.34961C18.0352 2.75195 17.3555 2.45312 16.5 2.45312C15.6445 2.45312 14.9648 2.75195 14.4609 3.34961C13.9688 3.94727 13.6875 4.69727 13.6172 5.59961C13.5938 5.8457 13.5059 6.0332 13.3535 6.16211C13.2129 6.29102 13.0195 6.38477 12.7734 6.44336C11.7422 6.72461 10.8398 7.22266 10.0664 7.9375C9.30469 8.65234 8.68945 9.68945 8.2207 11.0488C7.76367 12.3965 7.47656 14.1484 7.35938 16.3047C7.27734 17.2305 7.18945 18.1152 7.0957 18.959C7.00195 19.8027 6.87891 20.5938 6.72656 21.332C6.57422 22.0703 6.36914 22.7383 6.11133 23.3359C5.86523 23.9336 5.54297 24.4492 5.14453 24.8828C4.80469 25.2461 4.46484 25.6152 4.125 25.9902C3.78516 26.3652 3.48633 26.7227 3.22852 27.0625C2.98242 27.4023 2.82422 27.6895 2.75391 27.9238V28.1172ZM12.6328 30.1562C12.7031 31.4102 13.0957 32.4004 13.8105 33.127C14.5254 33.8652 15.4219 34.2344 16.5 34.2344C17.5898 34.2344 18.4863 33.8652 19.1895 33.127C19.9043 32.4004 20.2969 31.4102 20.3672 30.1562H12.6328Z" fill="#404040"/>
</svg>
