<svg width="31" height="35" viewBox="0 0 31 35" fill="none" xmlns="http://www.w3.org/2000/svg">
<path d="M5.375 34.6055C3.66406 34.6055 2.375 34.1719 1.50781 33.3047C0.640625 32.4492 0.207031 31.1719 0.207031 29.4727V11.0684C0.207031 9.36914 0.640625 8.0918 1.50781 7.23633C2.375 6.36914 3.66406 5.93555 5.375 5.93555H25.625C27.3242 5.93555 28.6074 6.36914 29.4746 7.23633C30.3535 8.10352 30.793 9.38086 30.793 11.0684V29.4727C30.793 31.1719 30.3711 32.4492 29.5273 33.3047C28.6953 34.1719 27.5059 34.6055 25.959 34.6055H5.375ZM5.42773 32.4434H25.9062C26.7148 32.4434 27.3711 32.1855 27.875 31.6699C28.3789 31.1543 28.6309 30.3867 28.6309 29.3672V11.1738C28.6309 10.166 28.3613 9.4043 27.8223 8.88867C27.2949 8.36133 26.5449 8.09766 25.5723 8.09766H5.42773C4.43164 8.09766 3.66992 8.36133 3.14258 8.88867C2.62695 9.4043 2.36914 10.166 2.36914 11.1738V29.3672C2.36914 30.3867 2.62695 31.1543 3.14258 31.6699C3.66992 32.1855 4.43164 32.4434 5.42773 32.4434ZM8.9082 6.62109C8.9082 5.37891 9.19531 4.25977 9.76953 3.26367C10.3555 2.26758 11.1465 1.47656 12.1426 0.890625C13.1387 0.292969 14.2578 -0.00585938 15.5 -0.00585938C16.7422 -0.00585938 17.8613 0.292969 18.8574 0.890625C19.8535 1.47656 20.6387 2.26758 21.2129 3.26367C21.7988 4.25977 22.0918 5.37891 22.0918 6.62109H19.9297C19.9297 5.74219 19.7363 4.96289 19.3496 4.2832C18.9746 3.5918 18.4531 3.04688 17.7852 2.64844C17.1172 2.25 16.3555 2.05078 15.5 2.05078C14.6445 2.05078 13.8828 2.25 13.2148 2.64844C12.5469 3.04688 12.0195 3.5918 11.6328 4.2832C11.2578 4.96289 11.0703 5.74219 11.0703 6.62109H8.9082Z" fill="#404040"/>
</svg>
