<svg width="34" height="35" viewBox="0 0 34 35" fill="none" xmlns="http://www.w3.org/2000/svg">
<path d="M1.04297 17.2139H10.3203C9.4668 16.8675 8.69987 16.4222 8.01953 15.8779C7.33919 15.3213 6.79492 14.6904 6.38672 13.9854C5.99089 13.2679 5.79297 12.501 5.79297 11.6846C5.79297 10.3734 6.19499 9.30957 6.99902 8.49316C7.81543 7.66439 8.85449 7.25 10.1162 7.25C10.9326 7.25 11.7181 7.43555 12.4727 7.80664C13.2396 8.17773 13.9323 8.70345 14.5508 9.38379C15.1693 10.0518 15.6826 10.8311 16.0908 11.7217V2.31445H17.8721V11.7217C18.2803 10.8311 18.7936 10.0518 19.4121 9.38379C20.0306 8.70345 20.7233 8.17773 21.4902 7.80664C22.2572 7.43555 23.0426 7.25 23.8467 7.25C25.1084 7.25 26.1413 7.66439 26.9453 8.49316C27.7617 9.30957 28.1699 10.3734 28.1699 11.6846C28.1699 12.501 27.9658 13.2679 27.5576 13.9854C27.1618 14.6904 26.6237 15.3213 25.9434 15.8779C25.263 16.4222 24.4961 16.8675 23.6426 17.2139H32.9385V18.8652H19.2451C19.6162 19.6074 20.1172 20.362 20.748 21.1289C21.3789 21.8958 22.0716 22.6071 22.8262 23.2627C23.5931 23.9183 24.3538 24.4626 25.1084 24.8955C25.863 25.3285 26.5557 25.582 27.1865 25.6562C27.5947 25.7057 27.8978 25.8418 28.0957 26.0645C28.306 26.2747 28.4111 26.5592 28.4111 26.918C28.4111 27.2396 28.2936 27.5241 28.0586 27.7715C27.8236 28.0189 27.4958 28.1055 27.0752 28.0312C26.3949 27.9076 25.6279 27.6292 24.7744 27.1963C23.9209 26.7633 23.055 26.1943 22.1768 25.4893C21.2985 24.7842 20.4883 23.974 19.7461 23.0586C19.0039 22.1432 18.4163 21.1351 17.9834 20.0342H17.8721V33.5791H16.0908V20.0342H15.9795C15.5465 21.1351 14.959 22.1432 14.2168 23.0586C13.4746 23.974 12.6644 24.7842 11.7861 25.4893C10.9202 26.1943 10.0544 26.7633 9.18848 27.1963C8.33496 27.6292 7.56803 27.9076 6.8877 28.0312C6.47949 28.1055 6.15169 28.0189 5.9043 27.7715C5.66927 27.5241 5.55176 27.2396 5.55176 26.918C5.55176 26.5592 5.65072 26.2747 5.84863 26.0645C6.05892 25.8418 6.36816 25.7057 6.77637 25.6562C7.40723 25.582 8.09993 25.3285 8.85449 24.8955C9.60905 24.4626 10.3698 23.9183 11.1367 23.2627C11.9036 22.6071 12.6025 21.8958 13.2334 21.1289C13.8643 20.362 14.359 19.6074 14.7178 18.8652H1.04297V17.2139ZM15.2559 16.9355H15.8125V16.4531C15.8125 15.4883 15.6579 14.5729 15.3486 13.707C15.0394 12.8411 14.6188 12.0742 14.0869 11.4062C13.5674 10.7259 12.9736 10.194 12.3057 9.81055C11.6377 9.41471 10.9388 9.2168 10.209 9.2168C9.50391 9.2168 8.92871 9.44564 8.4834 9.90332C8.05046 10.3486 7.83398 10.9609 7.83398 11.7402C7.83398 12.3711 8.0319 12.9958 8.42773 13.6143C8.83594 14.2327 9.38639 14.7956 10.0791 15.3027C10.7718 15.8099 11.5635 16.2119 12.4541 16.5088C13.3447 16.7933 14.2786 16.9355 15.2559 16.9355ZM18.707 16.9355C19.6842 16.9355 20.6182 16.7933 21.5088 16.5088C22.4118 16.2119 23.2035 15.8099 23.8838 15.3027C24.5765 14.7956 25.1208 14.2327 25.5166 13.6143C25.9248 12.9958 26.1289 12.3711 26.1289 11.7402C26.1289 10.9609 25.9124 10.3486 25.4795 9.90332C25.0465 9.44564 24.4714 9.2168 23.7539 9.2168C23.0365 9.2168 22.3438 9.41471 21.6758 9.81055C21.0078 10.194 20.4079 10.7259 19.876 11.4062C19.3441 12.0742 18.9235 12.8411 18.6143 13.707C18.305 14.5729 18.1504 15.4883 18.1504 16.4531V16.9355H18.707ZM31.6582 2.96387C32.5117 3.81738 33.0684 4.85026 33.3281 6.0625C33.5879 7.27474 33.7178 8.72201 33.7178 10.4043V24.7842C33.7178 26.4788 33.5879 27.9323 33.3281 29.1445C33.0684 30.3444 32.5117 31.3773 31.6582 32.2432C30.7923 33.0967 29.7471 33.6595 28.5225 33.9316C27.3102 34.2038 25.863 34.3398 24.1807 34.3398H9.80078C8.11849 34.3398 6.66504 34.2038 5.44043 33.9316C4.22819 33.6595 3.18913 33.0967 2.32324 32.2432C1.46973 31.3896 0.913086 30.3568 0.65332 29.1445C0.393555 27.9323 0.263672 26.4788 0.263672 24.7842V10.293C0.263672 8.67253 0.393555 7.26237 0.65332 6.0625C0.925456 4.86263 1.48828 3.82975 2.3418 2.96387C3.19531 2.11035 4.22819 1.54753 5.44043 1.27539C6.65267 1.00326 8.06901 0.867188 9.68945 0.867188H24.1807C25.863 0.867188 27.3102 1.00326 28.5225 1.27539C29.7471 1.54753 30.7923 2.11035 31.6582 2.96387ZM31.4355 9.92188C31.4355 8.82096 31.3304 7.80664 31.1201 6.87891C30.9222 5.95117 30.5387 5.20898 29.9697 4.65234C29.4007 4.07096 28.6462 3.67513 27.7061 3.46484C26.7783 3.25456 25.7702 3.14941 24.6816 3.14941H9.42969C8.2793 3.14941 7.22786 3.25456 6.27539 3.46484C5.32292 3.67513 4.56217 4.06478 3.99316 4.63379C3.43652 5.2028 3.05306 5.95736 2.84277 6.89746C2.64486 7.83757 2.5459 8.88281 2.5459 10.0332V25.2852C2.5459 26.3861 2.64486 27.4004 2.84277 28.3281C3.05306 29.2435 3.44271 29.9857 4.01172 30.5547C4.58073 31.1237 5.3291 31.5133 6.25684 31.7236C7.19694 31.9463 8.21126 32.0576 9.2998 32.0576H24.6816C25.7702 32.0576 26.7783 31.9525 27.7061 31.7422C28.6462 31.5319 29.4007 31.1361 29.9697 30.5547C30.5264 29.9857 30.9098 29.2435 31.1201 28.3281C31.3304 27.4004 31.4355 26.3861 31.4355 25.2852V9.92188Z" fill="#404040"/>
</svg>
