<svg width="22" height="21" viewBox="0 0 22 21" fill="none" xmlns="http://www.w3.org/2000/svg">
<path d="M6.08594 20.4277C5.83203 20.4277 5.63021 20.3398 5.48047 20.1641C5.33724 19.9948 5.26562 19.7637 5.26562 19.4707V16.834H4.63086C3.75195 16.834 3.00326 16.6712 2.38477 16.3457C1.76628 16.0202 1.29427 15.5482 0.96875 14.9297C0.64974 14.3112 0.490234 13.5658 0.490234 12.6934V4.8418C0.490234 3.96289 0.64974 3.21745 0.96875 2.60547C1.29427 1.98698 1.76628 1.51497 2.38477 1.18945C3.00326 0.857422 3.75195 0.691406 4.63086 0.691406H17.541C18.4199 0.691406 19.1686 0.857422 19.7871 1.18945C20.4056 1.51497 20.8743 1.98698 21.1934 2.60547C21.5189 3.22396 21.6816 3.9694 21.6816 4.8418V12.6934C21.6816 13.5658 21.5189 14.3112 21.1934 14.9297C20.8743 15.5417 20.4056 16.0137 19.7871 16.3457C19.1686 16.6712 18.4199 16.834 17.541 16.834H10.5879L7.16016 19.8516C6.94531 20.0404 6.75977 20.1836 6.60352 20.2812C6.44727 20.3789 6.27474 20.4277 6.08594 20.4277ZM6.38867 19.0703L9.60156 16.0234C9.76432 15.8672 9.91406 15.7663 10.0508 15.7207C10.1875 15.6686 10.3665 15.6426 10.5879 15.6426H17.5312C18.4883 15.6426 19.2174 15.3854 19.7188 14.8711C20.2266 14.3568 20.4805 13.6276 20.4805 12.6836V4.8418C20.4805 3.9043 20.2266 3.18164 19.7188 2.67383C19.2174 2.15951 18.4883 1.90234 17.5312 1.90234H4.64062C3.67708 1.90234 2.94466 2.15951 2.44336 2.67383C1.94206 3.18164 1.69141 3.9043 1.69141 4.8418V12.6836C1.69141 13.6276 1.94206 14.3568 2.44336 14.8711C2.94466 15.3854 3.67708 15.6426 4.64062 15.6426H5.82227C6.02409 15.6426 6.16732 15.6849 6.25195 15.7695C6.3431 15.8542 6.38867 15.9974 6.38867 16.1992V19.0703ZM11.0859 10.5156C10.6888 10.5156 10.487 10.304 10.4805 9.88086L10.373 4.65625C10.3665 4.45443 10.4284 4.28841 10.5586 4.1582C10.6888 4.02799 10.8613 3.96289 11.0762 3.96289C11.2845 3.96289 11.457 4.03125 11.5938 4.16797C11.7305 4.29818 11.7956 4.46094 11.7891 4.65625L11.6719 9.88086C11.6654 10.304 11.4701 10.5156 11.0859 10.5156ZM11.0859 13.543C10.832 13.543 10.6172 13.4551 10.4414 13.2793C10.2656 13.1035 10.1777 12.8984 10.1777 12.6641C10.1777 12.4167 10.2656 12.2083 10.4414 12.0391C10.6172 11.8698 10.832 11.7852 11.0859 11.7852C11.3333 11.7852 11.5449 11.8698 11.7207 12.0391C11.8965 12.2083 11.9844 12.4167 11.9844 12.6641C11.9844 12.9049 11.8932 13.1133 11.7109 13.2891C11.5352 13.4583 11.3268 13.543 11.0859 13.543Z" fill="#404040"/>
</svg>
