<svg width="19" height="22" viewBox="0 0 19 22" fill="none" xmlns="http://www.w3.org/2000/svg">
<path d="M0.490234 3.55664C0.490234 3.10742 0.626953 2.7526 0.900391 2.49219C1.17383 2.23177 1.54818 2.10156 2.02344 2.10156H3.73242C3.78451 1.61979 3.9668 1.24544 4.2793 0.978516C4.59831 0.705078 5.01823 0.568359 5.53906 0.568359H13.5859C14.1198 0.568359 14.543 0.705078 14.8555 0.978516C15.168 1.25195 15.347 1.6263 15.3926 2.10156H17.1113C17.5801 2.10156 17.9512 2.23177 18.2246 2.49219C18.498 2.7526 18.6348 3.10742 18.6348 3.55664C18.6348 4.83268 18.4427 5.94271 18.0586 6.88672C17.6745 7.83073 17.0983 8.63477 16.3301 9.29883C15.5684 9.95638 14.6113 10.5 13.459 10.9297C13.1465 11.3659 12.8079 11.75 12.4434 12.082C12.0853 12.4076 11.7337 12.6712 11.3887 12.873V17.0332H12.8438C13.4427 17.0332 13.8984 17.196 14.2109 17.5215C14.5299 17.847 14.6895 18.2962 14.6895 18.8691V20.7637C14.6895 20.9329 14.6309 21.0697 14.5137 21.1738C14.403 21.278 14.2663 21.3301 14.1035 21.3301H5.02148C4.85872 21.3301 4.71875 21.278 4.60156 21.1738C4.49089 21.0697 4.43555 20.9329 4.43555 20.7637V18.8691C4.43555 18.2962 4.5918 17.847 4.9043 17.5215C5.22331 17.196 5.68229 17.0332 6.28125 17.0332H7.73633V12.873C7.39128 12.6712 7.03646 12.4076 6.67188 12.082C6.3138 11.75 5.98177 11.3659 5.67578 10.9297C4.51693 10.5 3.55339 9.95638 2.78516 9.29883C2.02344 8.63477 1.45052 7.83073 1.06641 6.88672C0.682292 5.94271 0.490234 4.83268 0.490234 3.55664ZM1.57422 3.6543C1.57422 5.04753 1.83789 6.21615 2.36523 7.16016C2.89258 8.09766 3.65755 8.83984 4.66016 9.38672C4.3737 8.80078 4.13932 8.17253 3.95703 7.50195C3.78125 6.83138 3.69336 6.125 3.69336 5.38281V3.23438H1.99414C1.87044 3.23438 1.76953 3.27669 1.69141 3.36133C1.61328 3.43945 1.57422 3.53711 1.57422 3.6543ZM4.83594 5.65625C4.83594 6.32682 4.94336 6.98763 5.1582 7.63867C5.37956 8.28971 5.66602 8.90169 6.01758 9.47461C6.37565 10.0475 6.76628 10.5553 7.18945 10.998C7.61263 11.4408 8.0293 11.7891 8.43945 12.043C8.85612 12.2969 9.23047 12.4238 9.5625 12.4238C9.89453 12.4238 10.2656 12.2969 10.6758 12.043C11.0924 11.7891 11.5124 11.4408 11.9355 10.998C12.3587 10.5553 12.7461 10.0475 13.0977 9.47461C13.4557 8.90169 13.7422 8.28971 13.957 7.63867C14.1784 6.98763 14.2891 6.32682 14.2891 5.65625V2.4043C14.2891 2.19596 14.224 2.02669 14.0938 1.89648C13.9635 1.76628 13.7943 1.70117 13.5859 1.70117H5.53906C5.33073 1.70117 5.16146 1.76628 5.03125 1.89648C4.90104 2.02669 4.83594 2.19596 4.83594 2.4043V5.65625ZM5.57812 20.1973H13.5469V18.8691C13.5469 18.6543 13.4818 18.485 13.3516 18.3613C13.2279 18.2376 13.0586 18.1758 12.8438 18.1758H6.28125C6.06641 18.1758 5.89388 18.2376 5.76367 18.3613C5.63997 18.485 5.57812 18.6543 5.57812 18.8691V20.1973ZM8.87891 17.0332H10.2461V13.4395C10.0052 13.5111 9.77734 13.5469 9.5625 13.5469C9.34766 13.5469 9.11979 13.5111 8.87891 13.4395V17.0332ZM14.4648 9.38672C15.4674 8.83984 16.2324 8.09766 16.7598 7.16016C17.2871 6.21615 17.5508 5.04753 17.5508 3.6543C17.5508 3.53711 17.5117 3.43945 17.4336 3.36133C17.3555 3.27669 17.2546 3.23438 17.1309 3.23438H15.4316V5.38281C15.4316 6.125 15.3405 6.83138 15.1582 7.50195C14.9824 8.17253 14.7513 8.80078 14.4648 9.38672Z" fill="#404040"/>
</svg>
