<svg width="23" height="20" viewBox="0 0 23 20" fill="none" xmlns="http://www.w3.org/2000/svg">
<path d="M7.77539 14.418C7.13737 14.418 6.64909 14.2422 6.31055 13.8906C5.97852 13.5326 5.76693 13.041 5.67578 12.416L4.04492 1.27344H0.539062C0.389323 1.27344 0.259115 1.2181 0.148438 1.10742C0.0442708 0.996745 -0.0078125 0.863281 -0.0078125 0.707031C-0.0078125 0.557292 0.0442708 0.427083 0.148438 0.316406C0.259115 0.205729 0.389323 0.150391 0.539062 0.150391H4.10352C4.49414 0.150391 4.75781 0.22526 4.89453 0.375C5.03776 0.518229 5.12891 0.733073 5.16797 1.01953L6.84766 12.2402C6.89323 12.5788 7.01042 12.8392 7.19922 13.0215C7.38802 13.2038 7.63216 13.2949 7.93164 13.2949H19.3281C19.4779 13.2949 19.6048 13.3503 19.709 13.4609C19.8197 13.5651 19.875 13.6986 19.875 13.8613C19.875 14.0241 19.8197 14.1576 19.709 14.2617C19.6048 14.3659 19.4779 14.418 19.3281 14.418H7.77539ZM6.04688 10.9707L6.00781 9.84766H19.1719C19.4844 9.84766 19.7253 9.75326 19.8945 9.56445C20.0638 9.37565 20.1712 9.11523 20.2168 8.7832L20.9883 3.69531H5.09961L5.07031 2.5625H21.4766C21.7174 2.5625 21.9062 2.6276 22.043 2.75781C22.1797 2.88151 22.248 3.04753 22.248 3.25586C22.248 3.28841 22.2448 3.34049 22.2383 3.41211C22.2318 3.47721 22.222 3.53906 22.209 3.59766L21.3984 8.91016C21.3008 9.55469 21.0827 10.0592 20.7441 10.4238C20.4121 10.7884 19.9173 10.9707 19.2598 10.9707H6.04688ZM8.79102 19.125C8.49805 19.125 8.23763 19.0566 8.00977 18.9199C7.7819 18.7832 7.59961 18.5977 7.46289 18.3633C7.32617 18.1354 7.25781 17.8815 7.25781 17.6016C7.25781 17.3216 7.32617 17.0645 7.46289 16.8301C7.59961 16.5957 7.7819 16.4102 8.00977 16.2734C8.23763 16.1432 8.49805 16.0781 8.79102 16.0781C9.20768 16.0781 9.56576 16.2246 9.86523 16.5176C10.1647 16.8171 10.3145 17.1784 10.3145 17.6016C10.3145 18.0247 10.1647 18.3828 9.86523 18.6758C9.56576 18.9753 9.20768 19.125 8.79102 19.125ZM17.7461 19.125C17.3294 19.125 16.9681 18.9753 16.6621 18.6758C16.3626 18.3828 16.2129 18.0247 16.2129 17.6016C16.2129 17.3216 16.2812 17.0645 16.418 16.8301C16.5612 16.5957 16.7467 16.4102 16.9746 16.2734C17.209 16.1432 17.4661 16.0781 17.7461 16.0781C18.1758 16.0781 18.5371 16.2246 18.8301 16.5176C19.1296 16.8171 19.2793 17.1784 19.2793 17.6016C19.2793 18.0247 19.1296 18.3828 18.8301 18.6758C18.5371 18.9753 18.1758 19.125 17.7461 19.125Z" fill="#404040"/>
</svg>
