<svg width="25" height="24" viewBox="0 0 25 24" fill="none" xmlns="http://www.w3.org/2000/svg">
<path d="M23.5391 18.248H5.92188C5.07552 18.248 4.45378 18.0527 4.05664 17.6621C3.65951 17.265 3.46094 16.6465 3.46094 15.8066V5.99219C3.46094 5.09375 3.01172 4.64453 2.11328 4.64453H1.09766C0.941406 4.64453 0.804688 4.58594 0.6875 4.46875C0.563802 4.34505 0.501953 4.20182 0.501953 4.03906C0.501953 3.88281 0.563802 3.74609 0.6875 3.62891C0.804688 3.50521 0.941406 3.44336 1.09766 3.44336H2.19141C3.03776 3.44336 3.65951 3.64193 4.05664 4.03906C4.46029 4.42969 4.66211 5.04492 4.66211 5.88477V15.6895C4.66211 16.5944 5.10807 17.0469 6 17.0469H23.5391C23.7018 17.0469 23.8418 17.1022 23.959 17.2129C24.0827 17.3236 24.1445 17.4668 24.1445 17.6426C24.1445 17.8184 24.0827 17.9648 23.959 18.082C23.8418 18.1927 23.7018 18.248 23.5391 18.248ZM20.0723 23.2773C19.7728 23.2773 19.4993 23.2025 19.252 23.0527C19.0046 22.903 18.806 22.7012 18.6562 22.4473C18.5065 22.1999 18.4316 21.9297 18.4316 21.6367C18.4316 21.3372 18.5065 21.0605 18.6562 20.8066C18.806 20.5592 19.0046 20.3607 19.252 20.2109C19.4993 20.0612 19.7728 19.9863 20.0723 19.9863C20.3717 19.9863 20.6452 20.0612 20.8926 20.2109C21.14 20.3607 21.3385 20.5592 21.4883 20.8066C21.638 21.0605 21.7129 21.3372 21.7129 21.6367C21.7129 21.9297 21.638 22.1999 21.4883 22.4473C21.3385 22.7012 21.14 22.903 20.8926 23.0527C20.6452 23.2025 20.3717 23.2773 20.0723 23.2773ZM9.59375 23.2773C9.30078 23.2773 9.0306 23.2025 8.7832 23.0527C8.53581 22.903 8.33724 22.7012 8.1875 22.4473C8.03776 22.1999 7.96289 21.9297 7.96289 21.6367C7.96289 21.3372 8.03776 21.0605 8.1875 20.8066C8.33724 20.5592 8.53581 20.3607 8.7832 20.2109C9.0306 20.0612 9.30078 19.9863 9.59375 19.9863C9.89974 19.9863 10.1764 20.0612 10.4238 20.2109C10.6712 20.3607 10.8665 20.5592 11.0098 20.8066C11.1595 21.0605 11.2344 21.3372 11.2344 21.6367C11.2344 21.9297 11.1595 22.1999 11.0098 22.4473C10.8665 22.7012 10.6712 22.903 10.4238 23.0527C10.1764 23.2025 9.89974 23.2773 9.59375 23.2773ZM22.0547 15.3574H8.50977C7.83919 15.3574 7.32161 15.1882 6.95703 14.8496C6.59245 14.5046 6.41016 14.0098 6.41016 13.3652V5.44531C6.41016 4.80729 6.59245 4.31576 6.95703 3.9707C7.32161 3.61914 7.83919 3.44336 8.50977 3.44336H22.0547C22.7253 3.44336 23.2396 3.61914 23.5977 3.9707C23.9622 4.31576 24.1445 4.80729 24.1445 5.44531V13.3652C24.1445 14.0098 23.9622 14.5046 23.5977 14.8496C23.2396 15.1882 22.7253 15.3574 22.0547 15.3574ZM22.0449 14.2734C22.709 14.2734 23.041 13.9544 23.041 13.3164V5.48438C23.041 4.85938 22.709 4.54688 22.0449 4.54688H8.50977C7.85221 4.54688 7.52344 4.85938 7.52344 5.48438V13.3164C7.52344 13.9544 7.85221 14.2734 8.50977 14.2734H22.0449ZM20.9512 14.8887H19.8574V4.20508H20.9512V14.8887ZM10.707 14.8887H9.60352V3.95117H10.707V14.8887ZM19.3008 4.06836H18.2168V2.59375C18.2168 1.96224 17.8848 1.64648 17.2207 1.64648H13.3438C12.6667 1.64648 12.3281 1.96224 12.3281 2.59375V4.05859H11.2539V2.65234C11.2539 1.29818 11.9603 0.621094 13.373 0.621094H17.1914C17.875 0.621094 18.3958 0.79362 18.7539 1.13867C19.1185 1.48372 19.3008 1.98828 19.3008 2.65234V4.06836Z" fill="#404040"/>
</svg>
